<svg width="15" height="14" viewBox="0 0 15 14" fill="none" xmlns="http://www.w3.org/2000/svg">
<path d="M7.72464 6.97788L14.9128 13.5124C15.0316 13.6261 15.0285 13.805 14.9066 13.913C14.7847 14.0181 14.5941 14.0181 14.4722 13.913L7.50586 7.58018L0.536413 13.913C0.417662 14.0267 0.217632 14.0295 0.0957443 13.9187C-0.029278 13.8107 -0.0323833 13.6289 0.0895047 13.5181C0.0926389 13.5152 0.0957442 13.5124 0.0957442 13.5124L7.28395 6.97788C7.40586 6.86707 7.60276 6.86707 7.72464 6.97788Z" fill="#999999"/>
<path d="M7.27487 7.60098L0.0866649 1.06645C-0.0320871 0.9528 -0.0289822 0.773811 0.0929049 0.665858C0.214792 0.560728 0.405446 0.560728 0.527333 0.665858L7.49365 6.99868L14.4631 0.665856C14.5818 0.552203 14.7819 0.54938 14.9038 0.660183C15.0288 0.768136 15.0319 0.949975 14.91 1.06078C14.9069 1.06363 14.9038 1.06645 14.9038 1.06645L7.71557 7.60098C7.59365 7.71178 7.39675 7.71178 7.27487 7.60098Z" fill="#999999"/>
</svg>
