<svg width="134" height="45" viewBox="0 0 134 45" fill="none" xmlns="http://www.w3.org/2000/svg">
<path d="M7.54553 20.8908C7.05358 20.6398 6.85824 20.0375 7.10924 19.5455C7.36024 19.0536 7.96252 18.8582 8.45447 19.1092L7.54553 20.8908ZM126.5 6C127.052 6 127.5 6.44772 127.5 7C127.5 7.55228 127.052 8 126.5 8V6ZM27.8344 30.1196L27.3799 31.0103L27.8344 30.1196ZM8.45447 19.1092L9.44619 19.6152L8.53725 21.3967L7.54553 20.8908L8.45447 19.1092ZM12.4213 21.1332L14.4048 22.1451L13.4958 23.9266L11.5124 22.9147L12.4213 21.1332ZM17.3799 23.663L19.3634 24.675L18.4544 26.4565L16.471 25.4446L17.3799 23.663ZM22.3385 26.1929L24.322 27.2049L23.413 28.9864L21.4296 27.9745L22.3385 26.1929ZM27.2971 28.7228L28.2888 29.2288L27.3799 31.0103L26.3882 30.5044L27.2971 28.7228ZM28.2888 29.2288C28.5854 29.3801 28.8831 29.5276 29.1819 29.6714L28.315 31.4737C28.0021 31.3232 27.6904 31.1688 27.3799 31.0103L28.2888 29.2288ZM31.9148 30.8693C32.5335 31.1148 33.1557 31.3449 33.7811 31.5595L33.1319 33.4512C32.4768 33.2264 31.825 32.9854 31.177 32.7283L31.9148 30.8693ZM36.6355 32.4271C37.2781 32.5978 37.9232 32.7527 38.5701 32.8921L38.149 34.8472C37.4712 34.7012 36.7954 34.5389 36.1221 34.3601L36.6355 32.4271ZM41.5071 33.4164C42.1649 33.5099 42.8238 33.5876 43.4832 33.6496L43.2959 35.6408C42.6051 35.5758 41.9149 35.4944 41.2258 35.3965L41.5071 33.4164ZM46.462 33.8236C47.1258 33.8389 47.7892 33.8384 48.4518 33.8223L48.5003 35.8217C47.8063 35.8386 47.1114 35.8391 46.4161 35.8231L46.462 33.8236ZM51.4308 33.6445C52.0913 33.5816 52.7501 33.5032 53.4066 33.4093L53.6897 35.3892C53.0022 35.4875 52.3122 35.5696 51.6204 35.6355L51.4308 33.6445ZM56.3442 32.8828C56.9924 32.7428 57.6375 32.5876 58.2787 32.4172L58.7924 34.3501C58.1208 34.5286 57.4452 34.6912 56.7663 34.8377L56.3442 32.8828ZM61.134 31.5493C61.7609 31.3343 62.3833 31.1043 63.0004 30.8595L63.7379 32.7186C63.0914 32.975 62.4396 33.2159 61.7829 33.4411L61.134 31.5493ZM65.7333 29.6617C66.3302 29.3745 66.921 29.0728 67.5054 28.7567L68.457 30.5159C67.8448 30.847 67.2258 31.1631 66.6006 31.4639L65.7333 29.6617ZM70.0775 27.2451C70.6358 26.8897 71.1869 26.5203 71.7303 26.1371L72.883 27.7715C72.3137 28.173 71.7364 28.5599 71.1515 28.9322L70.0775 27.2451ZM74.1056 24.3321C74.6176 23.9137 75.1212 23.4819 75.6161 23.0368L76.9535 24.5238C76.4352 24.99 75.9077 25.4423 75.3714 25.8806L74.1056 24.3321ZM77.7628 20.9642C77.9931 20.7257 78.221 20.484 78.4466 20.2391L79.9177 21.594C79.6815 21.8504 79.4428 22.1035 79.2017 22.3533L77.7628 20.9642ZM78.4466 20.2391C78.6823 19.9831 78.9208 19.7303 79.1619 19.4806L80.6006 20.8698C80.3704 21.1082 80.1428 21.3496 79.9177 21.594L78.4466 20.2391ZM81.4123 17.3094C81.9302 16.844 82.4581 16.3918 82.9955 15.9529L84.2605 17.502C83.7475 17.921 83.2435 18.3527 82.7491 18.797L81.4123 17.3094ZM85.4858 14.0622C86.0545 13.6615 86.632 13.2746 87.2178 12.9018L88.2915 14.5892C87.7322 14.9451 87.1809 15.3144 86.638 15.697L85.4858 14.0622ZM89.9137 11.3177C90.5252 10.9869 91.1443 10.6707 91.7703 10.3693L92.6378 12.1714C92.0401 12.4591 91.4491 12.761 90.8653 13.0768L89.9137 11.3177ZM94.6339 9.1137C95.2797 8.85738 95.9317 8.61626 96.5893 8.39056L97.2385 10.2822C96.6107 10.4977 95.9883 10.7279 95.3717 10.9726L94.6339 9.1137ZM99.5809 7.48082C100.252 7.30247 100.928 7.1398 101.608 6.99305L102.03 8.94804C101.38 9.08815 100.735 9.24345 100.095 9.41372L99.5809 7.48082ZM104.686 6.44217C105.373 6.34421 106.063 6.26229 106.756 6.19665L106.944 8.18774C106.283 8.25041 105.624 8.32861 104.968 8.42213L104.686 6.44217ZM109.878 6.01229C110.225 6.00411 110.572 6 110.92 6V8C110.588 8 110.256 8.00392 109.925 8.01174L109.878 6.01229ZM110.92 6H111.959V8H110.92V6ZM115.075 6H117.152V8H115.075V6ZM120.268 6H122.345V8H120.268V6ZM125.461 6H126.5V8H125.461V6Z" fill="#393939"/>
<circle r="6" transform="matrix(1 0 0 -1 7.5 19.5)" fill="#FFB70D" stroke="white" stroke-width="3"/>
<circle r="6" transform="matrix(1 0 0 -1 126.5 7.5)" fill="#FFB70D" stroke="white" stroke-width="3"/>
</svg>
