<svg width="95" height="95" viewBox="0 0 95 95" fill="none" xmlns="http://www.w3.org/2000/svg">
<g style="mix-blend-mode:luminosity" clip-path="url(#clip0)">
<path d="M93.4164 94.8334H9.49994C8.62584 94.8334 7.91699 94.1238 7.91699 93.2497C7.91699 92.3756 8.62584 91.666 9.49994 91.666H93.4164C94.2912 91.666 95.0001 92.3756 95.0001 93.2497C95.0001 94.1238 94.2912 94.8334 93.4164 94.8334Z" fill="#F3D55B"/>
<path d="M3.16662 94.8334H1.58367C0.708847 94.8334 0 94.1238 0 93.2497C0 92.3756 0.708847 91.666 1.58367 91.666H3.16662C4.04144 91.666 4.75029 92.3756 4.75029 93.2497C4.75029 94.1238 4.04144 94.8334 3.16662 94.8334Z" fill="#F3D55B"/>
<path d="M83.5626 82.1665H88.7877L93.4169 74.1706L88.7942 66.1747H79.5632L74.9557 74.1706L76.7133 77.227L66.5003 67.7902V60.0001C68.2441 59.9871 69.6546 58.5767 69.6669 56.8335C69.6618 55.0868 68.247 53.672 66.5003 53.6669L75.1456 32.0703C75.7008 31.4919 76.0081 30.7185 76.0009 29.9169C75.9951 28.1702 74.581 26.7554 72.8343 26.7503H53.8338C52.9938 26.7452 52.1878 27.083 51.6015 27.6838C51.4021 27.8759 51.2311 28.0948 51.0919 28.3332H45.9169C45.9169 24.8354 43.0815 22 39.5837 22H13.5426L9.92517 22.0573C7.32969 22.0986 5.02195 23.7192 4.10291 26.1465L1.68863 32.5225C1.50453 33.0089 1.57049 33.5546 1.8662 33.9823C2.16119 34.4106 2.64753 34.6657 3.1672 34.6665H7.81457C8.41398 34.6665 8.96192 34.3273 9.23009 33.7909L11.5212 29.2088C11.7893 28.6724 12.338 28.3332 12.9381 28.3332H35.0711C25.6263 28.3354 17.3942 34.765 15.1053 43.9293L15.0422 44.1663H10.5934C9.04889 44.1729 7.73267 45.2883 7.47392 46.8111L6.50052 54.0163C5.43146 54.549 4.75377 55.6391 4.75088 56.8335C4.75812 58.2353 5.68586 59.466 7.03252 59.8574H6.98324L10.5456 73.332C10.8594 74.7939 12.1539 75.8369 13.6492 75.8332H16.6839C13.8506 78.9861 13.4498 83.6349 15.7003 87.227C17.9515 90.8191 22.3097 92.4854 26.3823 91.3112C30.4556 90.1363 33.2577 86.4058 33.2504 82.1665H47.6274C48.2181 86.2971 51.0818 89.7435 55.0341 91.0814C58.9856 92.4194 63.354 91.4214 66.3329 88.4997H83.2995C83.8837 88.5012 84.4447 88.27 84.8571 87.8568C85.2702 87.4437 85.5022 86.8834 85.5007 86.2992C85.5044 85.6839 85.2449 85.0961 84.7883 84.6844L83.1096 83.1326C83.2887 82.942 83.4184 82.7101 83.488 82.4578L83.5626 82.1665ZM51.047 31.4368V31.4129V31.4368Z" fill="#E57E25"/>
<path d="M15.0414 44.166L12.6662 53.6666L6.33301 55.2495L7.47311 46.8108C7.73186 45.288 9.04808 44.1725 10.5926 44.166H15.0414Z" fill="#D25627"/>
<path d="M66.4995 60.0002V72.8406L47.6266 82.1665H33.2496L16.6881 75.8333H13.6483C12.1531 75.8369 10.8586 74.7939 10.5448 73.332L6.98242 59.8574L66.4995 60.0002Z" fill="#F0C419"/>
<path d="M33.2497 82.1668C33.2497 87.4136 28.9966 91.6667 23.7499 91.6667C18.5031 91.6667 14.25 87.4136 14.25 82.1668C14.25 76.9201 18.5031 72.667 23.7499 72.667C28.9966 72.667 33.2497 76.9201 33.2497 82.1668Z" fill="#35495E"/>
<path d="M26.9162 82.1666C26.9162 83.9155 25.4986 85.3332 23.7496 85.3332C22.0007 85.3332 20.583 83.9155 20.583 82.1666C20.583 80.4177 22.0007 79 23.7496 79C25.4986 79 26.9162 80.4177 26.9162 82.1666Z" fill="#A5A5A4"/>
<path d="M53.8332 53.6667H39.583V28.333H52.2502L50.7615 29.1404L51.0463 31.4366L52.5822 43.7233L53.6433 52.1149L53.8332 53.6667Z" fill="#D25627"/>
<path d="M39.5826 28.333V53.6667H12.666L15.0412 44.1661L15.1042 43.9291C17.3931 34.7648 25.6253 28.3352 35.0701 28.333H39.5826Z" fill="#F29C1F"/>
<path d="M75.9998 29.9167C76.007 30.7183 75.6997 31.4917 75.1445 32.07L75.0655 32.149C74.4784 32.7506 73.6732 33.0876 72.8331 33.0833H53.8327C52.6752 33.0768 51.6105 32.4477 51.0459 31.4366V31.4206C50.7987 30.9575 50.6682 30.4414 50.6661 29.9167C50.6646 29.655 50.6965 29.3941 50.761 29.1404C50.8965 28.5852 51.1879 28.0801 51.6003 27.6836C52.1867 27.0827 52.9926 26.745 53.8327 26.7501H72.8331C74.5799 26.7551 75.994 28.1699 75.9998 29.9167Z" fill="#F0C419"/>
<path d="M75.1452 32.0703L66.4999 53.667H53.8335L53.6436 52.1152L53.8335 52.0833L68.4474 33.0836H72.8339C73.6739 33.0879 74.4792 32.7509 75.0662 32.1493L75.1452 32.0703Z" fill="#90BAE1"/>
<path d="M13.5421 22H39.5832C43.081 22 45.9164 24.8354 45.9164 28.3332H12.9376C12.3375 28.3332 11.7888 28.6724 11.5207 29.2088L9.22959 33.7909C8.96142 34.3273 8.41347 34.6665 7.81407 34.6665H3.1667C2.6463 34.6665 2.15996 34.4113 1.86425 33.983C1.56853 33.5554 1.50258 33.0096 1.68667 32.5225L4.10096 26.1465C5.02072 23.7192 7.32918 22.0993 9.92467 22.0587L13.5421 22Z" fill="#F0C419"/>
<path d="M81.9377 82.1666H88.7935L93.4163 74.1707L88.7935 66.1748H79.5626L74.9551 74.1707L76.7127 77.2272" fill="#F29C1F"/>
<path d="M81.9279 83.7008C81.8264 83.7001 81.7256 83.69 81.6256 83.6689C80.8001 83.5218 80.2434 82.7405 80.3746 81.912L80.3906 81.8164L82.3809 73.8639C82.5947 73.0152 83.455 72.5006 84.303 72.7144C85.1517 72.9275 85.6664 73.7878 85.4525 74.6366L83.4876 82.4578C83.3086 83.1768 82.6693 83.6863 81.9279 83.7008Z" fill="#D25627"/>
<path d="M18.9992 55.2505C18.8933 55.2512 18.7868 55.2411 18.6824 55.2193C18.2715 55.1353 17.9098 54.891 17.6786 54.5409C17.4467 54.1901 17.364 53.7625 17.4481 53.3508L19.031 45.4339C19.1253 44.8628 19.5232 44.3888 20.069 44.1967C20.6147 44.0054 21.2221 44.1264 21.6519 44.5134C22.0824 44.9005 22.2672 45.4912 22.1346 46.0543L20.5509 53.9713C20.406 54.7134 19.7558 55.2498 18.9992 55.2505Z" fill="#F0C419"/>
<path d="M25.3329 55.2512C25.2263 55.2519 25.1198 55.2417 25.0162 55.22C24.6045 55.1359 24.2428 54.8917 24.0116 54.5416C23.7797 54.1908 23.697 53.7632 23.7811 53.3515L25.3641 45.4346C25.5605 44.604 26.3788 44.0785 27.2159 44.2459C28.0523 44.4133 28.6061 45.2135 28.4676 46.055L26.8839 53.9719C26.739 54.7141 26.0889 55.2504 25.3329 55.2512Z" fill="#F0C419"/>
<path d="M31.6659 55.2512C31.5594 55.2519 31.4528 55.2417 31.3492 55.22C30.9375 55.1359 30.5758 54.8917 30.3446 54.5416C30.1127 54.1908 30.03 53.7632 30.1141 53.3515L31.6971 45.4346C31.8935 44.604 32.7125 44.0785 33.5489 44.2459C34.3853 44.4133 34.9391 45.2135 34.8006 46.055L33.2177 53.9719C33.072 54.7141 32.4219 55.2504 31.6659 55.2512Z" fill="#F0C419"/>
<path d="M60.5617 33.0833L52.5817 43.7232L51.0459 31.4365C51.6105 32.4476 52.6752 33.0767 53.8327 33.0833H60.5617Z" fill="#90BAE1"/>
<path d="M68.447 33.084L53.833 52.0837L53.6431 52.1156L52.582 43.7239L60.562 33.084H68.447Z" fill="#B0D3F0"/>
<path d="M69.6663 80.5835C69.6663 86.7044 64.7044 91.6663 58.5835 91.6663C52.4619 91.6663 47.5 86.7044 47.5 80.5835C47.5 74.4619 52.4619 69.5 58.5835 69.5C64.7044 69.5 69.6663 74.4619 69.6663 80.5835Z" fill="#35495E"/>
<path d="M63.3329 80.5833C63.3329 83.2063 61.2063 85.3329 58.5833 85.3329C55.9595 85.3329 53.833 83.2063 53.833 80.5833C53.833 77.9595 55.9595 75.833 58.5833 75.833C61.2063 75.833 63.3329 77.9595 63.3329 80.5833Z" fill="#A5A5A4"/>
</g>
<defs>
<clipPath id="clip0">
<rect width="95" height="95" fill="white"/>
</clipPath>
</defs>
</svg>
