<svg width="95" height="95" viewBox="0 0 95 95" fill="none" xmlns="http://www.w3.org/2000/svg">
<g style="mix-blend-mode:luminosity" clip-path="url(#clip0)">
<path d="M24.6445 41.1826C23.8528 41.1826 23.211 41.8244 23.211 42.6162V45.3079V52.6546C22.0854 51.7707 20.9361 51.1246 20.0023 50.6793C19.2879 50.3384 18.432 50.6418 18.0912 51.3562C17.7503 52.0707 18.0533 52.9265 18.768 53.2673C20.0793 53.8928 21.8949 54.9849 23.2108 56.6599C23.2108 60.4921 23.2108 78.8815 23.2108 81.6416C23.2108 82.4335 23.8526 83.0751 24.6443 83.0751C25.436 83.0751 26.0778 82.4333 26.0778 81.6416C26.0778 80.3622 26.0778 46.6425 26.0778 45.3081V42.6163C26.0782 41.8244 25.4362 41.1826 24.6445 41.1826Z" fill="#9E7430"/>
<path d="M50.6271 76.175C50.4644 75.4001 49.704 74.9047 48.9293 75.0669C48.8345 75.0869 47.3281 75.4142 45.6776 76.3644V71.2422V69.9042C45.6776 69.1123 45.0358 68.4707 44.2441 68.4707C43.4524 68.4707 42.8105 69.1125 42.8105 69.9042V71.2422C42.8105 73.8167 42.8105 84.1335 42.8105 85.8463C42.8105 86.6382 43.4524 87.2798 44.2441 87.2798C45.0358 87.2798 45.6776 86.638 45.6776 85.8463C45.6776 84.6684 45.6776 81.4353 45.6776 79.9091C47.2524 78.3826 49.4912 77.8787 49.5237 77.8716C50.2957 77.7072 50.7896 76.9484 50.6271 76.175Z" fill="#9E7430"/>
<path d="M71.8837 56.4785C71.092 56.4785 70.4502 57.1203 70.4502 57.9121C70.4502 60.1503 70.4502 74.4404 70.4502 76.7536C68.5517 75.6044 66.758 75.2145 66.6496 75.1917C65.8748 75.0288 65.1148 75.5249 64.9519 76.2998C64.789 77.0746 65.2849 77.8348 66.0598 77.9977C66.087 78.0035 68.6686 78.5874 70.4502 80.346C70.4502 82.349 70.4502 83.7979 70.4502 86.7016C70.4502 87.4935 71.092 88.1351 71.8837 88.1351C72.6754 88.1351 73.3172 87.4933 73.3172 86.7016C73.3172 82.9863 73.3172 61.0292 73.3172 57.9122C73.3172 57.1203 72.6754 56.4785 71.8837 56.4785Z" fill="#9E7430"/>
<path d="M44.8266 17.6069C44.3308 17.0685 44.128 16.3113 44.288 15.5971C45.0437 12.227 43.2591 9.12853 39.9573 8.09633C39.2587 7.87794 38.7045 7.32353 38.4859 6.62494C37.4552 3.32851 34.3606 1.53742 30.9851 2.29445C30.271 2.45458 29.5138 2.25159 28.9753 1.756C26.4344 -0.583569 22.8589 -0.587094 20.3141 1.756C19.7757 2.25178 19.0185 2.45458 18.3043 2.29445C14.9342 1.53872 11.8359 3.32331 10.8035 6.62494C10.5852 7.32353 10.0307 7.87794 9.33216 8.09633C6.03573 9.12705 4.24464 12.2216 5.00149 15.5971C5.16161 16.3113 4.95862 17.0685 4.46303 17.6069C2.12346 20.1478 2.11994 23.7233 4.46303 26.2681C4.95881 26.8065 5.16161 27.5638 5.00149 28.2779C4.24575 31.6482 6.03034 34.7465 9.33216 35.7787C10.0307 35.9971 10.5852 36.5515 10.8035 37.2501C11.8343 40.5465 14.9288 42.3376 18.3043 41.5806C19.0185 41.4204 19.7757 41.6234 20.3141 42.119C22.855 44.4586 26.4305 44.4621 28.9753 42.119C29.5138 41.6232 30.271 41.4204 30.9851 41.5806C34.3552 42.3363 37.4537 40.5517 38.4859 37.2501C38.7043 36.5515 39.2587 35.9971 39.9573 35.7787C43.2537 34.748 45.0448 31.6534 44.288 28.2779C44.1278 27.5638 44.3308 26.8065 44.8266 26.2681C47.166 23.7272 47.1697 20.1517 44.8266 17.6069Z" fill="#FFB70D"/>
<path d="M23.478 40.1479C20.1079 40.9036 17.0094 39.119 15.9772 35.8172C15.7588 35.1186 15.2044 34.5644 14.5058 34.3458C11.2094 33.3153 9.41832 30.2205 10.1752 26.845C10.3353 26.1309 10.1323 25.3737 9.63653 24.8352C7.29696 22.2943 7.29325 18.7188 9.63653 16.174C10.1323 15.6356 10.3351 14.8784 10.175 14.1642C9.41944 10.7941 11.2038 7.69564 14.5055 6.66344C16.4624 6.0517 15.5915 4.22424 17.8693 2.21198C14.6224 1.68911 11.7766 3.51192 10.8034 6.62467C10.585 7.32325 10.0306 7.87748 9.33204 8.09605C6.03579 9.12658 4.24471 12.2213 5.00155 15.5968C5.16168 16.311 4.95869 17.0682 4.4631 17.6066C2.12353 20.1475 2.11982 23.723 4.4631 26.2678C4.95888 26.8063 5.16168 27.5635 5.00174 28.2777C4.24601 31.6478 6.0306 34.7462 9.33241 35.7784C10.031 35.9968 10.5852 36.5512 10.8038 37.2498C11.8345 40.5464 14.9293 42.3373 18.3045 41.5803C19.0187 41.4202 19.7759 41.6231 20.3144 42.1187C22.7315 44.3444 26.1586 44.4919 28.7234 42.3397C25.6483 41.7734 25.5116 39.6918 23.478 40.1479Z" fill="#EDA006"/>
<path d="M88.3452 37.3773C88.0453 37.0832 87.9294 36.6503 88.042 36.2458C88.8781 33.2409 87.2566 30.4343 84.2375 29.6563C83.8308 29.5515 83.5139 29.2345 83.4093 28.828C83.046 27.418 82.2091 26.2081 80.9489 25.4805C79.6889 24.753 78.2225 24.6333 76.8197 25.0235C76.4152 25.1362 75.9824 25.0202 75.6883 24.7204C73.504 22.4938 70.2627 22.4947 68.0794 24.7204C67.7853 25.0202 67.3524 25.1362 66.9479 25.0235C63.9429 24.1875 61.1364 25.809 60.3584 28.828C60.2535 29.2347 59.9366 29.5516 59.5301 29.6563C56.5096 30.4347 54.8899 33.2422 55.7256 36.2458C55.8382 36.6503 55.7223 37.0832 55.4224 37.3773C53.1959 39.5617 53.197 42.8029 55.4224 44.9862C55.7223 45.2803 55.8382 45.7132 55.7256 46.1177C54.8895 49.1226 56.511 51.9292 59.5301 52.7072C59.9368 52.812 60.2537 53.1289 60.3584 53.5355C60.7217 54.9454 61.5585 56.1554 62.8187 56.8829C64.0788 57.6105 65.5451 57.7301 66.9479 57.3399C67.3524 57.2273 67.7853 57.3433 68.0794 57.6431C70.2636 59.8697 73.5049 59.8688 75.6883 57.6431C75.9824 57.3433 76.4152 57.2273 76.8197 57.3399C79.8247 58.176 82.6313 56.5545 83.4093 53.5355C83.5141 53.1288 83.831 52.8118 84.2375 52.7072C87.2579 51.9288 88.8777 49.1213 88.042 46.1177C87.9294 45.7132 88.0453 45.2803 88.3452 44.9862C90.5718 42.8019 90.5706 39.5606 88.3452 37.3773Z" fill="#FFB70D"/>
<path d="M71.7631 56.051C68.7582 56.887 65.9516 55.2655 65.1736 52.2465C65.0687 51.84 64.7518 51.5231 64.3453 51.4182C61.3248 50.6399 59.7051 47.8323 60.5408 44.8287C60.6535 44.4242 60.5375 43.9913 60.2376 43.6972C58.0111 41.513 58.012 38.2716 60.2376 36.0883C60.5375 35.7942 60.6535 35.3613 60.5408 34.9568C59.7047 31.9519 61.3262 29.1453 64.3453 28.3673C65.5912 28.0461 64.8591 26.6883 66.6388 24.9481C63.7449 24.3016 61.1084 25.919 60.3584 28.8291C60.2536 29.2359 59.9367 29.5528 59.5301 29.6574C56.5096 30.4358 54.89 33.2433 55.7257 36.247C55.8383 36.6514 55.7224 37.0843 55.4225 37.3784C53.1959 39.5627 53.1969 42.804 55.4225 44.9873C55.7224 45.2814 55.8383 45.7143 55.7257 46.1188C54.8896 49.1237 56.5111 51.9303 59.5301 52.7083C59.9369 52.8132 60.2538 53.1301 60.3584 53.5366C60.7217 54.9466 61.5587 56.1565 62.8188 56.8841C64.0788 57.6116 65.5452 57.7313 66.948 57.3411C67.3524 57.2285 67.7853 57.3444 68.0794 57.6443C70.1806 59.786 73.2727 59.8751 75.4588 57.8652C73.0656 57.2529 72.9964 55.7079 71.7631 56.051Z" fill="#EDA006"/>
<path d="M71.8849 51.9729C77.9811 51.9729 82.9231 47.0309 82.9231 40.9347C82.9231 34.8385 77.9811 29.8965 71.8849 29.8965C65.7887 29.8965 60.8467 34.8385 60.8467 40.9347C60.8467 47.0309 65.7887 51.9729 71.8849 51.9729Z" fill="#7F551D"/>
<path d="M24.6439 34.9949C32.0207 34.9949 38.0007 29.0148 38.0007 21.6381C38.0007 14.2613 32.0207 8.28125 24.6439 8.28125C17.2672 8.28125 11.2871 14.2613 11.2871 21.6381C11.2871 29.0148 17.2672 34.9949 24.6439 34.9949Z" fill="#7F551D"/>
<path d="M17.547 25.7357C14.3001 20.112 15.6095 13.1101 20.3268 8.99805C12.3338 11.738 8.88916 21.062 13.0775 28.3163C17.2688 35.5758 27.0672 37.2454 33.4322 31.6972C27.5123 33.7265 20.7939 31.3595 17.547 25.7357Z" fill="#724817"/>
<path d="M38.0012 21.6381C38.0012 14.2613 32.0212 8.28125 24.6444 8.28125C14.9167 8.28125 8.50899 18.3392 12.4637 27.1171C14.4829 26.558 14.9981 25.002 17.8606 25.002C21.3496 25.002 21.3496 27.3149 24.8386 27.3149C28.328 27.3149 28.328 25.002 31.8176 25.002C34.5123 25.002 35.1272 26.3805 36.874 27.0087C37.597 25.3648 38.0012 23.549 38.0012 21.6381Z" fill="#8E6325"/>
<path d="M20.3264 8.99902C12.9806 11.5034 9.19911 19.8689 12.4647 27.117C14.31 26.606 14.9004 25.2632 17.1734 25.0357C14.4169 19.5414 15.8033 12.9423 20.3264 8.99902Z" fill="#7F551D"/>
<path d="M59.9742 66.9426C59.9117 66.6413 60.0458 66.3292 60.3072 66.167C63.7573 64.0278 68.2782 65.9651 69.1037 69.9446C69.1662 70.2459 69.032 70.558 68.7706 70.7202C65.3205 72.8593 60.7997 70.922 59.9742 66.9426Z" fill="#97BC31"/>
<path d="M68.2799 67.9438C65.9798 68.3453 63.6646 67.337 62.3927 65.376C61.6538 65.5049 60.945 65.7727 60.3082 66.1673C60.0468 66.3295 59.9126 66.6416 59.9752 66.9429C60.7997 70.9177 65.3176 72.8621 68.7716 70.7205C69.033 70.5583 69.1672 70.2462 69.1046 69.9449C68.9568 69.233 68.6757 68.5542 68.2799 67.9438Z" fill="#76A314"/>
<path d="M80.908 72.2618C80.9516 72.0442 80.8555 71.8204 80.6677 71.7022C79.444 70.9324 77.8754 70.7565 76.4467 71.3701C75.0178 71.9837 74.0653 73.2422 73.7809 74.6596C73.7373 74.8773 73.8334 75.101 74.0212 75.2192C75.2449 75.9889 76.8135 76.1648 78.2422 75.5512C79.6711 74.9378 80.6235 73.6792 80.908 72.2618Z" fill="#97BC31"/>
<path d="M65.6824 41.1848C64.6526 37.0622 65.9216 33.0384 68.7517 30.3496C64.9638 31.4761 62.1883 34.4647 61.2203 38.0777C60.387 41.1872 61.2068 43.6699 61.2129 43.7654C63.3475 51.7929 73.3589 54.748 79.484 48.9422C73.5119 50.7123 67.2759 47.1773 65.6824 41.1848Z" fill="#724817"/>
<path d="M42.0465 55.2558C42.1489 54.7617 41.9292 54.2497 41.5003 53.9839C35.8424 50.4759 28.4285 53.6528 27.0747 60.1787C26.9723 60.6728 27.192 61.1848 27.621 61.4507C33.2788 64.9588 40.6928 61.7817 42.0465 55.2558Z" fill="#97BC31"/>
<path d="M41.516 56.9738C41.7448 56.4194 41.9242 55.8448 42.0465 55.2559C42.1489 54.7617 41.9292 54.2498 41.5003 53.9839C35.8424 50.4758 28.4285 53.6529 27.0747 60.1788C26.9723 60.6729 27.192 61.1848 27.621 61.4507C28.2568 61.845 28.9363 62.1629 29.644 62.3994C31.5709 57.7312 36.7629 55.3852 41.516 56.9738Z" fill="#76A314"/>
<path d="M10.4194 63.9785C10.3478 63.6217 10.5055 63.2545 10.8135 63.0606C12.8202 61.7983 15.3927 61.5098 17.7357 62.516C20.0788 63.5222 21.641 65.5863 22.1074 67.9106C22.1791 68.2674 22.0213 68.6346 21.7133 68.8285C19.7066 70.0908 17.1342 70.3793 14.7911 69.3731C12.448 68.3669 10.8857 66.3028 10.4194 63.9785Z" fill="#97BC31"/>
<path d="M21.3912 65.8975C19.8185 66.3293 18.0944 66.2512 16.4792 65.5576C14.8444 64.8555 13.5914 63.6378 12.8238 62.1768C12.115 62.3714 11.437 62.6692 10.8135 63.0613C10.5055 63.255 10.3478 63.6222 10.4194 63.9792C10.8859 66.3035 12.448 68.3675 14.7911 69.3737C17.1342 70.38 19.7066 70.0916 21.7133 68.8292C22.0213 68.6355 22.1791 68.2683 22.1074 67.9113C21.9664 67.2088 21.7237 66.5306 21.3912 65.8975Z" fill="#76A314"/>
<path d="M24.6443 8.28125C18.4752 8.28125 13.2856 12.4648 11.751 18.1486C14.3997 17.8015 14.6884 15.8902 17.8605 15.8902C21.3495 15.8902 21.3495 18.2028 24.8386 18.2028C28.328 18.2028 28.328 15.8902 31.8175 15.8902C34.818 15.8902 35.2403 17.5989 37.5176 18.0781C35.9591 12.4303 30.7878 8.28125 24.6443 8.28125Z" fill="#9E7430"/>
<path d="M20.3264 8.99902C16.2247 10.3973 12.9379 13.7774 11.7549 18.1482C13.7989 17.8791 14.4377 16.6788 16.0843 16.1463C16.6923 13.4271 18.1423 10.9031 20.3264 8.99902Z" fill="#8E6325"/>
<path d="M35.362 71.1074C35.3184 70.8898 35.4145 70.666 35.6022 70.5478C38.3036 68.8484 41.8615 70.3775 42.489 73.5052C42.5326 73.7229 42.4365 73.9466 42.2487 74.0648C41.025 74.8347 39.4564 75.0104 38.0277 74.397C36.5988 73.7834 35.6464 72.5248 35.362 71.1074Z" fill="#97BC31"/>
<path d="M88.836 84.5215C88.8169 84.5146 88.5532 84.5259 88.4814 84.2491C86.9117 78.1884 78.8545 76.9473 75.5089 82.219C75.2042 82.699 74.7441 82.5636 74.3993 82.5636C72.6034 82.5636 71.0311 83.5184 70.1605 84.9477C70.0009 85.2097 69.6391 85.2572 69.428 85.0345C66.6008 82.053 61.7415 82.3788 59.349 85.7593C59.1843 85.9919 58.9084 86.1174 58.6258 86.0795C58.4705 86.0587 58.312 86.048 58.1511 86.048C56.1751 86.048 54.5732 87.6498 54.5732 89.6259C54.5732 89.6971 54.5758 90.3412 54.5801 90.4115H93.2541C93.9026 86.9052 91.5279 84.5215 88.836 84.5215Z" fill="#97BC31"/>
<path d="M8.45932 83.4057C8.57621 83.4057 8.69199 83.4107 8.80703 83.4179C10.4495 75.8083 20.6056 74.0701 24.6728 80.7627C24.8047 80.9798 25.0511 81.0965 25.3038 81.0698C27.7475 80.8115 30.0184 82.0653 31.1638 84.1067C31.295 84.3405 31.6236 84.3759 31.8028 84.1768C35.2479 80.3516 41.3576 80.7837 44.2363 85.048C44.5295 85.4823 44.893 85.253 45.5862 85.253C47.9772 85.253 49.9154 87.1912 49.9154 89.5822C49.9154 89.6684 49.9122 90.3273 49.9072 90.4123H3.11389C3.05414 90.0896 3.02148 89.184 3.02148 88.8439C3.0213 85.8402 5.45605 83.4057 8.45932 83.4057Z" fill="#76A314"/>
<path d="M18.7813 84.553C18.8004 84.5463 19.1242 84.5561 19.2088 84.229C19.7886 81.9844 21.2465 80.0937 23.1933 78.9426C18.3948 74.4358 10.5163 76.742 8.88441 83.0918C8.83561 83.2814 8.65878 83.4061 8.46303 83.4059C8.46191 83.4059 8.46062 83.4059 8.4595 83.4059C5.45623 83.4059 3.02148 85.8407 3.02148 88.8439C3.02148 89.1838 3.05433 90.0895 3.11389 90.4124H13.3518C13.2355 86.8682 15.8619 84.553 18.7813 84.553Z" fill="#6C9106"/>
<path d="M78.275 85.9676C78.2942 85.9613 78.6183 85.9715 78.6999 85.6535C79.4484 82.7408 81.6737 80.4209 84.5304 79.5399C81.3447 78.0806 77.4648 79.1373 75.5087 82.2194C75.204 82.6994 74.7439 82.564 74.3991 82.564C72.6032 82.564 71.0309 83.5188 70.1603 84.948C70.0007 85.21 69.6389 85.2575 69.428 85.0349C66.6006 82.0531 61.7415 82.3793 59.349 85.7596C59.1843 85.9923 58.9084 86.1177 58.6258 86.0799C58.4705 86.0591 58.312 86.0483 58.1511 86.0483C56.1751 86.0483 54.5732 87.6502 54.5732 89.6262C54.5732 89.6975 54.5758 90.3415 54.5801 90.4119H72.9294C73.3964 87.8834 75.6113 85.9676 78.275 85.9676Z" fill="#76A314"/>
<path d="M2.58157 89.8389C30.1376 89.8389 86.0691 89.8389 92.4193 89.8389C93.8658 89.8389 94.9999 91.0241 94.9999 92.4195C94.9999 93.8446 93.8445 95 92.4193 95C82.276 95 12.831 95 2.58157 95C1.15638 95 0.000976586 93.8446 0.000976586 92.4195C0.000791039 91.0514 1.11055 89.8389 2.58157 89.8389Z" fill="#8E6325"/>
<path d="M10.8887 91.7578C11.1813 90.6538 12.1843 89.8389 13.3804 89.8389C12.2313 89.8389 3.73247 89.8389 2.58059 89.8389C1.14279 89.8389 0 91.015 0 92.4195C0 93.8446 1.1554 95 2.58078 95C4.65408 95 11.3163 95 13.3806 95C11.6405 95 10.4574 93.3344 10.8887 91.7578Z" fill="#7F551D"/>
<path d="M71.8845 29.8955C63.8449 29.8955 58.5489 38.2082 61.8175 45.4629C63.4863 45.0009 63.9121 43.7149 66.2778 43.7149C69.1616 43.7149 69.1616 45.6264 72.0452 45.6264C74.9292 45.6264 74.9292 43.7149 77.8131 43.7149C80.0403 43.7149 80.5485 44.8541 81.992 45.3735C85.1838 38.1165 79.8686 29.8955 71.8845 29.8955Z" fill="#8E6325"/>
<path d="M66.7144 43.7318C66.2561 42.9106 65.9145 42.0552 65.683 41.1848C64.6428 37.0204 65.9509 33.0111 68.7523 30.3496C62.3474 32.2546 59.0673 39.3609 61.8169 45.463C63.572 44.977 64.0182 43.5305 66.7144 43.7318Z" fill="#7F551D"/>
<path d="M71.8837 29.8955C66.7851 29.8955 62.4959 33.3532 61.2275 38.0509C63.4166 37.764 63.6552 36.1843 66.277 36.1843C69.1608 36.1843 69.1608 38.0958 72.0444 38.0958C74.9284 38.0958 74.9284 36.1843 77.8123 36.1843C80.2922 36.1843 80.6412 37.5965 82.5234 37.9926C81.2351 33.3246 76.9612 29.8955 71.8837 29.8955Z" fill="#9E7430"/>
<path d="M65.5224 36.2346C65.9691 33.9776 67.0753 31.9429 68.7521 30.3496C65.0009 31.4655 62.214 34.4205 61.2285 38.0507C63.1857 37.7938 63.5848 36.5042 65.5224 36.2346Z" fill="#8E6325"/>
</g>
<defs>
<clipPath id="clip0">
<rect width="95" height="95" fill="white"/>
</clipPath>
</defs>
</svg>
