<svg width="51" height="51" viewBox="0 0 51 51" fill="none" xmlns="http://www.w3.org/2000/svg">
<g clip-path="url(#clip0)">
<path d="M8.32517 16.6602H1.66507C0.749462 16.6602 0 17.4058 0 18.3251V48.2958C0 49.2147 0.746175 49.9605 1.66507 49.9605H8.32517C9.24407 49.9605 9.99024 49.2146 9.99024 48.2958V18.3251C9.99024 17.4058 9.24068 16.6602 8.32517 16.6602Z" fill="#161E2B"/>
<path d="M46.8429 16.6601C46.5747 16.6147 34.0193 16.6601 34.0193 16.6601L35.773 11.8756C36.9831 8.57119 36.1996 3.52567 32.8421 1.7319C31.7489 1.14779 30.2215 0.854439 28.99 1.16442C28.2838 1.34213 27.6631 1.80969 27.2931 2.43614C26.8677 3.15662 26.9116 3.99762 26.7601 4.79649C26.3759 6.82274 25.4185 8.74929 23.9358 10.1953C21.3507 12.7165 13.3203 19.99 13.3203 19.99V46.6306H41.0708C44.8153 46.6328 47.2693 42.4512 45.4225 39.1849C47.6239 37.7749 48.3769 34.8051 47.0875 32.5248C49.2891 31.1148 50.042 28.145 48.7526 25.8647C52.5511 23.4319 51.2812 17.4107 46.8429 16.6601Z" fill="#161E2B"/>
</g>
<defs>
<clipPath id="clip0">
<rect width="51" height="51" fill="white"/>
</clipPath>
</defs>
</svg>
