<svg width="180" height="180" viewBox="0 0 180 180" fill="none" xmlns="http://www.w3.org/2000/svg">
<circle cx="90" cy="90" r="89" stroke="white" stroke-opacity="0.16" stroke-width="2"/>
<circle cx="89.5" cy="89.5" r="72.5" stroke="white" stroke-opacity="0.19" stroke-width="2"/>
<path d="M75.9844 112.589V68.6629L77.1107 67.5366L112.59 89.4998L75.9844 112.589Z" fill="white"/>
<path d="M89.5 36C59.9532 36 36 59.9527 36 89.5C36 119.047 59.9532 143 89.5 143C119.047 143 143 119.047 143 89.5C143 59.9527 119.047 36 89.5 36ZM107.991 92.3359L81.2409 109.055C80.6997 109.393 80.0842 109.562 79.4688 109.562C78.9112 109.562 78.3528 109.424 77.8475 109.143C76.7846 108.554 76.125 107.435 76.125 106.219V72.7812C76.125 71.565 76.7846 70.4465 77.8475 69.8571C78.9103 69.2645 80.21 69.3004 81.2409 69.9453L107.991 86.6641C108.968 87.2764 109.562 88.3475 109.562 89.5C109.562 90.6525 108.968 91.7238 107.991 92.3359Z" fill="#FF382B" fill-opacity="0.81"/>
</svg>
