<svg width="216" height="216" viewBox="0 0 216 216" fill="none" xmlns="http://www.w3.org/2000/svg">
<g clip-path="url(#clip0)">
<mask id="mask0" mask-type="alpha" maskUnits="userSpaceOnUse" x="0" y="0" width="216" height="216">
<path d="M108 216C167.646 216 216 167.646 216 108C216 48.3532 167.646 0 108 0C48.3532 0 0 48.3532 0 108C0 167.646 48.3532 216 108 216Z" fill="#FFD751"/>
</mask>
<g mask="url(#mask0)">
<path d="M108 216C167.646 216 216 167.646 216 108C216 48.3532 167.646 0 108 0C48.3532 0 0 48.3532 0 108C0 167.646 48.3532 216 108 216Z" fill="#FFD751"/>
<rect x="-920" y="-578" width="2056" height="1371"/>
<rect x="-852" y="-304" width="1920" height="600" fill="#FFD74E" fill-opacity="0.97"/>
</g>
<path d="M57.6701 0.0558389C26.5149 0.722827 1.01492 25.9473 0.0302587 57.0937C-0.459119 72.5673 5.01685 86.7555 14.3306 97.5344C18.5254 102.389 19.7227 109.153 17.5648 115.194L13.686 126.054C12.4246 129.587 16.5155 132.606 19.5193 130.359L33.2763 120.071C37.3698 117.009 42.5677 115.87 47.583 116.859C52.8054 117.887 58.2738 118.228 63.8979 117.763C93.4871 115.314 116.822 90.8434 117.886 61.1715C119.104 27.1872 91.5481 -0.669368 57.6701 0.0558389Z" fill="#3E3E3E"/>
<path d="M191.875 151.783C186.886 157.804 185.303 165.942 187.93 173.304L189.795 178.527C187.441 181.256 184.95 183.866 182.336 186.347L170.751 177.694C165.863 174.049 159.682 172.603 153.687 173.718C149.821 174.441 145.492 175.08 142.349 175.08C106.841 175.08 78.0605 146.299 78.0605 110.792C78.0563 75.3193 106.872 46.5029 142.349 46.5029C177.853 46.5029 206.638 75.2838 206.638 110.792C206.639 126.37 201.093 140.657 191.875 151.783Z" fill="#3D84D8"/>
<path d="M151.424 146.354C151.424 151.218 147.272 155.489 142.407 155.489C137.187 155.489 133.271 151.218 133.271 146.354C133.271 141.37 137.187 137.218 142.407 137.218C147.272 137.218 151.424 141.371 151.424 146.354ZM149.17 123.811C149.17 127.49 145.136 129.032 142.288 129.032C138.491 129.032 135.288 127.49 135.288 123.811C135.288 109.693 133.628 89.4046 133.628 75.2852C133.628 70.658 137.425 68.0479 142.289 68.0479C146.916 68.0479 150.831 70.6576 150.831 75.2852C150.83 89.4041 149.17 109.692 149.17 123.811Z" fill="#F9EED7"/>
<path d="M69.082 56.707C63.0977 61.3856 62.988 64.6505 62.988 70.3088C62.988 72.3768 61.9 74.7697 56.5679 74.7697C52.107 74.7697 50.5836 73.1379 50.5836 67.4792C50.5836 58.1211 54.7188 53.6598 57.874 50.9395C61.465 47.8927 67.5586 44.5194 67.5586 38.6435C67.5586 33.6383 63.2061 31.2438 57.7652 31.2438C46.6664 31.2438 49.0597 39.6227 43.1842 39.6227C40.2463 39.6227 36.6553 37.6643 36.6553 33.4198C36.6553 27.5443 43.4019 18.8389 58.0921 18.8389C72.0204 18.8389 81.2692 26.5647 81.2692 36.7931C81.2692 47.0215 72.0204 54.4217 69.082 56.707ZM65.0561 90.6572C65.0561 95.1181 61.3558 99.0357 56.6772 99.0357C51.9985 99.0357 48.4071 95.1181 48.4071 90.6572C48.4071 86.087 52.1074 82.2783 56.6772 82.2783C61.2469 82.2783 65.0561 86.087 65.0561 90.6572Z" fill="#F9EED7"/>
</g>
<defs>
<clipPath id="clip0">
<rect width="216" height="216" fill="white"/>
</clipPath>
</defs>
</svg>
