<svg width="78" height="78" viewBox="0 0 78 78" fill="none" xmlns="http://www.w3.org/2000/svg">
<g style="mix-blend-mode:luminosity">
<path d="M3.36133 14.793V29.0374V39.8323V77.9999H10.0855H75.982V29.0374V14.793H3.36133Z" fill="#8B4432"/>
<path d="M43.706 39H6.05078V69.931H43.706V39Z" fill="#B35A5B"/>
<path d="M41.0171 41.6895H8.74121V67.2412H41.0171V41.6895Z" fill="#B0D3F0"/>
<path d="M20.8443 14.7931H2.52503C2.27086 14.7931 2.08662 14.5497 2.15655 14.3049L7.61924 2.43817C8.30241 0.952138 9.78845 0 11.4251 0H23.5339L20.8443 14.7931Z" fill="#ED7161"/>
<path d="M58.4995 14.7931H39.6719V0H55.8098L58.4995 14.7931Z" fill="#ED7161"/>
<path d="M30.2575 33.6206C25.0584 33.6206 20.8438 29.4059 20.8438 24.2068V14.793H39.6713V24.2068C39.6713 29.4059 35.4566 33.6206 30.2575 33.6206Z" fill="#F0C419"/>
<path d="M67.9138 33.6206C62.7147 33.6206 58.5 29.4059 58.5 24.2068V14.793H77.1837C77.263 14.793 77.3276 14.8575 77.3276 14.9369V24.2068C77.3276 29.4059 73.1129 33.6206 67.9138 33.6206Z" fill="#F0C419"/>
<path d="M39.6713 14.7931H20.8438L23.5334 0H39.6713V14.7931Z" fill="#F3D55B"/>
<path d="M76.8494 14.7931H58.4992L55.8096 0H67.9184C69.555 0 71.0411 0.952138 71.7256 2.43952L77.1964 14.3345C77.2609 14.5645 77.0888 14.7931 76.8494 14.7931Z" fill="#F3D55B"/>
<path d="M11.4304 33.6206C6.23129 33.6206 2.0166 29.4059 2.0166 24.2068V15.1722C2.0166 14.9624 2.18605 14.793 2.39584 14.793H20.8442V24.2068C20.8442 29.4059 16.6295 33.6206 11.4304 33.6206Z" fill="#D36259"/>
<path d="M49.0857 33.6206C43.8866 33.6206 39.6719 29.4059 39.6719 24.2068V14.793H58.4995V24.2068C58.4995 29.4059 54.2848 33.6206 49.0857 33.6206Z" fill="#D36259"/>
<path d="M70.6032 39H49.0859V78H70.6032V39Z" fill="#B35A5B"/>
<path d="M67.9133 41.6895H51.7754V75.3101H67.9133V41.6895Z" fill="#B0D3F0"/>
<path d="M65.2237 63.2066C64.48 63.2066 63.8789 62.6054 63.8789 61.8617V57.8272C63.8789 57.0836 64.48 56.4824 65.2237 56.4824C65.9674 56.4824 66.5686 57.0836 66.5686 57.8272V61.8617C66.5686 62.6054 65.9674 63.2066 65.2237 63.2066Z" fill="white"/>
<path d="M23.5336 51.1035C23.8779 51.1035 24.2222 50.9717 24.4844 50.7094L29.8637 45.3301C30.3896 44.8043 30.3896 43.9544 29.8637 43.4286C29.3379 42.9027 28.488 42.9027 27.9622 43.4286L22.5828 48.8079C22.057 49.3337 22.057 50.1836 22.5828 50.7094C22.8451 50.9717 23.1894 51.1035 23.5336 51.1035Z" fill="white"/>
<path d="M23.5336 57.8279C23.8779 57.8279 24.2222 57.6961 24.4844 57.4339L27.1741 54.7442C27.6999 54.2184 27.6999 53.3684 27.1741 52.8426C26.6483 52.3168 25.7983 52.3168 25.2725 52.8426L22.5828 55.5323C22.057 56.0581 22.057 56.908 22.5828 57.4339C22.8451 57.6961 23.1894 57.8279 23.5336 57.8279Z" fill="white"/>
<path d="M27.9584 50.1486C27.7149 50.4028 27.5684 50.7538 27.5684 51.1034C27.5684 51.4531 27.7149 51.8027 27.9584 52.0448C28.2125 52.299 28.5487 52.4482 28.9132 52.4482C29.2628 52.4482 29.6125 52.3003 29.868 52.0582C30.1101 51.8027 30.258 51.4531 30.258 51.1034C30.258 50.7538 30.1101 50.4028 29.868 50.1486C29.3704 49.651 28.4559 49.651 27.9584 50.1486Z" fill="white"/>
<path d="M30.6522 49.3646C30.9144 49.6269 31.2587 49.7587 31.603 49.7587C31.9473 49.7587 32.2915 49.6269 32.5538 49.3646L36.5882 45.3301C37.1141 44.8043 37.1141 43.9544 36.5882 43.4286C36.0624 42.9027 35.2125 42.9027 34.6867 43.4286L30.6522 47.463C30.1264 47.9889 30.1264 48.8388 30.6522 49.3646Z" fill="white"/>
<path d="M34.6863 50.1532L22.5828 62.2566C22.057 62.7824 22.057 63.6324 22.5828 64.1582C22.8451 64.4204 23.1894 64.5522 23.5336 64.5522C23.8779 64.5522 24.2222 64.4204 24.4844 64.1582L36.5879 52.0547C37.1137 51.5289 37.1137 50.679 36.5879 50.1532C36.0621 49.6273 35.2121 49.6273 34.6863 50.1532Z" fill="white"/>
<path d="M39.2811 47.4591C38.7835 46.9615 37.869 46.9615 37.3714 47.4591C37.128 47.7133 36.9814 48.0643 36.9814 48.414C36.9814 48.7636 37.128 49.1133 37.3714 49.3688C37.6256 49.6108 37.9766 49.7588 38.3263 49.7588C38.6759 49.7588 39.0256 49.6108 39.2811 49.3688C39.5232 49.1133 39.6711 48.7636 39.6711 48.414C39.6711 48.0643 39.5232 47.7133 39.2811 47.4591Z" fill="white"/>
<path d="M10.0853 77.9996H2.01628L0.784423 70.6098C0.72525 70.2548 0.999595 69.9307 1.36001 69.9307H11.4301L10.0853 77.9996Z" fill="#CB8252"/>
<path d="M7.39571 55.1377H4.70605V69.9308H7.39571V55.1377Z" fill="#7F6E5D"/>
<path d="M11.6833 49.328C12.0921 48.2952 12.3839 47.1426 12.1634 46.0412C12.0679 45.5638 11.85 45.1052 11.5502 44.7435C11.0445 44.1316 10.8239 43.2521 10.9974 42.4425C11.1615 41.6759 11.0633 40.8152 10.7069 40.128C10.0574 38.876 8.76501 38.1753 7.4807 37.9924C6.53664 37.858 5.49439 38.0019 4.79508 38.7227L3.96398 39.4408C3.01991 39.886 2.29639 40.8717 2.08929 41.992C1.97767 42.5998 2.01801 43.2373 2.19284 43.8263C2.45374 44.7045 2.23722 45.6539 1.73829 46.3922C0.614014 48.0544 0.316807 50.4361 1.14522 52.3216C1.25012 52.561 1.38595 52.7976 1.54463 53.0115C2.08795 53.7417 2.29236 54.71 2.06508 55.6258C2.01263 55.8356 1.97767 56.0508 1.9575 56.2646C1.86874 57.2423 2.06777 58.2213 2.2695 59.1788C2.47929 60.174 2.7375 61.2485 3.4637 61.8725C4.44812 62.7184 5.87363 62.3903 7.0006 61.8093C8.59288 60.9876 10.0668 59.6347 10.6289 57.7789C10.9571 56.6963 10.8791 55.4402 10.4393 54.4235C9.99553 53.3961 9.99553 52.1763 10.6384 51.2901C11.0674 50.6997 11.4103 50.0192 11.6833 49.328Z" fill="#24AE5F"/>
</g>
</svg>
