<svg width="139" height="139" viewBox="0 0 139 139" fill="none" xmlns="http://www.w3.org/2000/svg">
<rect width="139" height="139" rx="69.5" fill="#FFE461"/>
<g clip-path="url(#clip0)">
<path d="M100.657 51.5648L94.9846 45.8923C94.2068 45.1139 93.2608 44.7246 92.1489 44.7246C91.036 44.7246 90.09 45.1139 89.3122 45.8923L61.9498 73.2961L49.6869 60.9914C48.9082 60.2127 47.9628 59.8238 46.8509 59.8238C45.7383 59.8238 44.7929 60.2127 44.0142 60.9914L38.3417 66.664C37.563 67.4426 37.1738 68.3882 37.1738 69.5007C37.1738 70.6124 37.563 71.5589 38.3417 72.3373L53.4406 87.4359L59.1136 93.1084C59.8918 93.8874 60.8375 94.2763 61.9498 94.2763C63.0617 94.2763 64.0074 93.8864 64.7861 93.1084L70.4589 87.4359L100.657 57.2378C101.435 56.4591 101.825 55.5136 101.825 54.4011C101.826 53.2892 101.435 52.3435 100.657 51.5648Z" fill="white"/>
</g>
<defs>
<clipPath id="clip0">
<rect width="64.6512" height="64.6512" fill="white" transform="translate(37.1738 37.1748)"/>
</clipPath>
</defs>
</svg>
