<svg width="134" height="45" viewBox="0 0 134 45" fill="none" xmlns="http://www.w3.org/2000/svg">
<path d="M7.54553 24.1092C7.05358 24.3602 6.85824 24.9625 7.10924 25.4545C7.36024 25.9464 7.96252 26.1418 8.45447 25.8908L7.54553 24.1092ZM126.5 39C127.052 39 127.5 38.5523 127.5 38C127.5 37.4477 127.052 37 126.5 37V39ZM27.8344 14.8804L27.3799 13.9897L27.8344 14.8804ZM8.45447 25.8908L9.44619 25.3848L8.53725 23.6033L7.54553 24.1092L8.45447 25.8908ZM12.4213 23.8668L14.4048 22.8549L13.4958 21.0734L11.5124 22.0853L12.4213 23.8668ZM17.3799 21.337L19.3634 20.325L18.4544 18.5435L16.471 19.5554L17.3799 21.337ZM22.3385 18.8071L24.322 17.7951L23.413 16.0136L21.4296 17.0255L22.3385 18.8071ZM27.2971 16.2772L28.2888 15.7712L27.3799 13.9897L26.3882 14.4956L27.2971 16.2772ZM28.2888 15.7712C28.5854 15.6199 28.8831 15.4724 29.1819 15.3286L28.315 13.5263C28.0021 13.6768 27.6904 13.8312 27.3799 13.9897L28.2888 15.7712ZM31.9148 14.1307C32.5335 13.8852 33.1557 13.6551 33.7811 13.4405L33.1319 11.5488C32.4768 11.7736 31.825 12.0146 31.177 12.2717L31.9148 14.1307ZM36.6355 12.5729C37.2781 12.4022 37.9232 12.2473 38.5701 12.1079L38.149 10.1528C37.4712 10.2988 36.7954 10.4611 36.1221 10.6399L36.6355 12.5729ZM41.5071 11.5836C42.1649 11.4901 42.8238 11.4124 43.4832 11.3504L43.2959 9.35919C42.6051 9.42418 41.9149 9.50558 41.2258 9.60349L41.5071 11.5836ZM46.462 11.1764C47.1258 11.1611 47.7892 11.1616 48.4518 11.1777L48.5003 9.17827C47.8063 9.16143 47.1114 9.16093 46.4161 9.17688L46.462 11.1764ZM51.4308 11.3555C52.0913 11.4184 52.7501 11.4968 53.4066 11.5907L53.6897 9.61085C53.0022 9.51252 52.3122 9.43037 51.6204 9.36448L51.4308 11.3555ZM56.3442 12.1172C56.9924 12.2572 57.6375 12.4124 58.2787 12.5828L58.7924 10.6499C58.1208 10.4714 57.4452 10.3088 56.7663 10.1623L56.3442 12.1172ZM61.134 13.4507C61.7609 13.6657 62.3833 13.8957 63.0004 14.1405L63.7379 12.2814C63.0914 12.025 62.4396 11.7841 61.7829 11.5589L61.134 13.4507ZM65.7333 15.3383C66.3302 15.6255 66.921 15.9272 67.5054 16.2433L68.457 14.4841C67.8448 14.153 67.2258 13.8369 66.6006 13.5361L65.7333 15.3383ZM70.0775 17.7549C70.6358 18.1103 71.1869 18.4797 71.7303 18.8629L72.883 17.2285C72.3137 16.827 71.7364 16.4401 71.1515 16.0678L70.0775 17.7549ZM74.1056 20.6679C74.6176 21.0863 75.1212 21.5181 75.6161 21.9632L76.9535 20.4762C76.4352 20.01 75.9077 19.5577 75.3714 19.1194L74.1056 20.6679ZM77.7628 24.0358C77.9931 24.2743 78.221 24.516 78.4466 24.7609L79.9177 23.406C79.6815 23.1496 79.4428 22.8965 79.2017 22.6467L77.7628 24.0358ZM78.4466 24.7609C78.6823 25.0169 78.9208 25.2697 79.1619 25.5194L80.6006 24.1302C80.3704 23.8918 80.1428 23.6504 79.9177 23.406L78.4466 24.7609ZM81.4123 27.6906C81.9302 28.156 82.4581 28.6082 82.9955 29.0471L84.2605 27.498C83.7475 27.079 83.2435 26.6473 82.7491 26.203L81.4123 27.6906ZM85.4858 30.9378C86.0545 31.3385 86.632 31.7254 87.2178 32.0982L88.2915 30.4108C87.7322 30.0549 87.1809 29.6856 86.638 29.303L85.4858 30.9378ZM89.9137 33.6823C90.5252 34.0131 91.1443 34.3293 91.7703 34.6307L92.6378 32.8286C92.0401 32.5409 91.4491 32.239 90.8653 31.9232L89.9137 33.6823ZM94.6339 35.8863C95.2797 36.1426 95.9317 36.3837 96.5893 36.6094L97.2385 34.7178C96.6107 34.5023 95.9883 34.2721 95.3717 34.0274L94.6339 35.8863ZM99.5809 37.5192C100.252 37.6975 100.928 37.8602 101.608 38.007L102.03 36.052C101.38 35.9119 100.735 35.7566 100.095 35.5863L99.5809 37.5192ZM104.686 38.5578C105.373 38.6558 106.063 38.7377 106.756 38.8033L106.944 36.8123C106.283 36.7496 105.624 36.6714 104.968 36.5779L104.686 38.5578ZM109.878 38.9877C110.225 38.9959 110.572 39 110.92 39V37C110.588 37 110.256 36.9961 109.925 36.9883L109.878 38.9877ZM110.92 39H111.959V37H110.92V39ZM115.075 39H117.152V37H115.075V39ZM120.268 39H122.345V37H120.268V39ZM125.461 39H126.5V37H125.461V39Z" fill="#393939"/>
<circle cx="7.5" cy="25.5" r="6" fill="#FFB70D" stroke="white" stroke-width="3"/>
<circle cx="126.5" cy="37.5" r="6" fill="#FFB70D" stroke="white" stroke-width="3"/>
</svg>
