<svg width="51" height="51" viewBox="0 0 51 51" fill="none" xmlns="http://www.w3.org/2000/svg">
<g clip-path="url(#clip0)">
<path d="M46.75 10.6251H36.125V8.50003C36.125 6.15612 34.219 4.25 31.875 4.25H19.125C16.7811 4.25 14.875 6.15603 14.875 8.50003V10.625H4.25003C1.90603 10.6251 0 12.5311 0 14.875V21.25C0 23.594 1.90603 25.5001 4.25003 25.5001H21.2501V24.4375C21.2501 23.8502 21.7253 23.375 22.3126 23.375H28.6876C29.2749 23.375 29.7501 23.8502 29.7501 24.4375V25.5001H46.7502C49.094 25.5001 51 23.594 51 21.25V14.875C51 12.5311 49.094 10.6251 46.75 10.6251ZM31.875 10.6251H19.125V8.50003H31.875V10.6251Z" fill="#161E2B"/>
<path d="M50.4106 26.6464C50.0485 26.4669 49.6158 26.5084 49.2962 26.7512C48.5408 27.3229 47.6609 27.6248 46.7499 27.6248H29.75V30.8123C29.75 31.3996 29.2748 31.8748 28.6875 31.8748H22.3125C21.7252 31.8748 21.25 31.3996 21.25 30.8123V27.6248H4.25003C3.33901 27.6248 2.45916 27.3229 1.70372 26.7512C1.38308 26.5063 0.951469 26.4648 0.589289 26.6464C0.228305 26.826 0 27.1942 0 27.5979V42.4998C0 44.8437 1.90603 46.7498 4.25003 46.7498H46.7501C49.094 46.7498 51.0001 44.8438 51.0001 42.4998V27.5979C51 27.1942 50.7717 26.826 50.4106 26.6464Z" fill="#161E2B"/>
</g>
<defs>
<clipPath id="clip0">
<rect width="51" height="51" fill="white"/>
</clipPath>
</defs>
</svg>
