<svg width="51" height="51" viewBox="0 0 51 51" fill="none" xmlns="http://www.w3.org/2000/svg">
<path d="M48.7601 23.3446C48.0101 22.9429 47.1121 22.9863 46.4022 23.4603L34.0008 31.7366V25.3842C34.0008 24.5318 33.5234 23.7485 32.7723 23.3468C32.0212 22.9451 31.1065 22.9896 30.3955 23.4625L17.6436 31.9614V14.158C17.6436 13.6851 17.2808 13.2656 16.809 13.2656H1.88499C1.41319 13.2656 1.0293 13.6851 1.0293 14.158V50.1498C1.0293 50.6216 1.41319 50.9999 1.88499 50.9999H49.1351C49.6069 50.9999 49.9708 50.6216 49.9708 50.1498V25.3808C49.9719 24.5296 49.5134 23.7463 48.7601 23.3446ZM28.5918 40.3535C28.5918 40.6862 28.3225 40.9554 27.9876 40.9554H23.787C23.4532 40.9554 23.1839 40.6862 23.1839 40.3535V36.1496C23.1839 35.8158 23.4532 35.5465 23.787 35.5465H27.9876C28.3225 35.5465 28.5918 35.8158 28.5918 36.1496V40.3535ZM44.3025 40.3535C44.3025 40.6862 44.0354 40.9554 43.7005 40.9554H39.4988C39.165 40.9554 38.8957 40.6862 38.8957 40.3535V36.1496C38.8957 35.8158 39.165 35.5465 39.4988 35.5465H43.7005C44.0354 35.5465 44.3025 35.8158 44.3025 36.1496V40.3535Z" fill="#161E2B"/>
<path d="M1.88485 9.91648H16.8089C17.2807 9.91648 17.6434 9.59157 17.6434 9.11978V2.30554C17.6434 1.02926 16.6297 0 15.3523 0H3.34142C2.06512 0 1.03027 1.02926 1.03027 2.30554V9.12089C1.03027 9.59157 1.41417 9.91648 1.88485 9.91648Z" fill="#161E2B"/>
</svg>
