<svg width="121" height="86" viewBox="0 0 121 86" fill="none" xmlns="http://www.w3.org/2000/svg">
<g style="mix-blend-mode:luminosity" clip-path="url(#clip0)">
<path d="M63.4599 0H48.0574C43.6237 0 40.0293 3.56908 40.0293 7.97155V66.2193H63.4599V0Z" fill="#B3B3B3"/>
<path d="M63.4599 20.3115H54.7617V66.2188H63.4599V20.3115Z" fill="#CCCCCC"/>
<path d="M87.5217 76.3663C87.5217 79.1686 86.3792 81.7055 84.5291 83.5424C82.6791 85.3794 80.1242 86.5139 77.3021 86.5139H10.2196C7.43148 86.5139 4.90541 85.408 3.06064 83.6075C2.35575 82.9206 1.75043 82.1322 1.26566 81.2657C0.63938 80.1365 0.222735 78.8772 0.0681306 77.5372C0.0235837 77.1521 0 76.7618 0 76.3663C0 75.9708 0.0235837 75.5805 0.0681306 75.1954C0.222735 73.8554 0.63938 72.5961 1.26566 71.4669C1.73471 70.629 2.31644 69.8615 2.99251 69.1902C3.01609 69.1667 3.03705 69.1459 3.06064 69.1251C4.90541 67.3246 7.43148 66.2188 10.2196 66.2188H77.3021C82.9464 66.2188 87.5217 70.7615 87.5217 76.3663Z" fill="#D3674A"/>
<path d="M44.0228 69.126V71.4677H1.26562C1.73468 70.6299 2.31641 69.8623 2.99247 69.191C3.01606 69.1676 3.03702 69.1468 3.06061 69.126H44.0228Z" fill="#8B4432"/>
<path d="M41.751 75.1963V77.538H0.0681306C0.0235837 77.1529 0 76.7627 0 76.3672C0 75.9717 0.0235837 75.5814 0.0681306 75.1963H41.751Z" fill="#8B4432"/>
<path d="M41.7509 81.2666V83.6084H3.06061C2.35572 82.9214 1.7504 82.133 1.26562 81.2666H41.7509Z" fill="#8B4432"/>
<path d="M29.2912 34.9199H21.6523V45.0417H29.2912H36.9365V34.9199H29.2912Z" fill="#E6E9ED"/>
<path d="M31.2019 27.3281C31.5523 27.3281 31.839 27.6128 31.839 27.9607V29.226C31.839 29.5739 31.5523 29.8586 31.2019 29.8586H27.3793C27.0289 29.8586 26.7422 29.5739 26.7422 29.226V27.9607C26.7422 27.6128 27.0289 27.3281 27.3793 27.3281H31.2019Z" fill="#656D78"/>
<path d="M21.6523 49.4693C21.6523 48.4192 22.5061 47.5715 23.5637 47.5715C22.5061 47.5715 21.6523 46.7238 21.6523 45.6736V45.041H29.2912H36.9365V45.6736C36.9365 46.7238 36.0828 47.5715 35.0252 47.5715C36.0828 47.5715 36.9365 48.4192 36.9365 49.4693V50.7345V53.265V55.7955V62.7542C36.9365 64.8545 35.2291 66.5499 33.1139 66.5499H25.475C23.3662 66.5499 21.6523 64.8545 21.6523 62.7542V55.7955V53.265V50.7345V49.4693Z" fill="#FFCE54"/>
<path d="M36.9365 34.9193H29.2912H21.6523V34.2867C21.6523 33.2366 22.5061 32.3889 23.5637 32.3889H26.1057C26.8123 32.3889 27.3799 31.8258 27.3799 31.1236V29.8584H31.2025V31.1236C31.2025 31.8195 31.7759 32.3889 32.4768 32.3889H35.0252C36.0828 32.3889 36.9365 33.2366 36.9365 34.2867V34.9193Z" fill="#FFCE54"/>
<path d="M28.3413 38.3357C28.3604 37.6841 28.7433 37.121 29.2906 36.8174C29.8379 37.121 30.2208 37.6841 30.2399 38.3357C30.2463 38.3546 30.2463 38.3799 30.2463 38.3989C30.2463 39.0758 29.8583 39.6641 29.2906 39.9805C28.723 39.6641 28.335 39.0758 28.335 38.3989C28.335 38.3799 28.335 38.3546 28.3413 38.3357Z" fill="#FFCE54"/>
<path d="M30.2467 41.562C30.2467 40.8851 29.8587 40.2968 29.291 39.9805C29.8517 40.3094 30.5589 40.3474 31.1514 40.0121C31.1705 39.9994 31.1902 39.9931 31.2023 39.9805C31.763 40.3284 32.0561 40.9357 32.0497 41.562C31.5024 41.8846 30.8264 41.9289 30.2467 41.6189H30.2403C30.2467 41.6006 30.2467 41.5803 30.2467 41.562Z" fill="#EDAB37"/>
<path d="M31.1514 40.0122C30.5589 40.3475 29.8517 40.3096 29.291 39.9806C29.8587 39.6643 30.2467 39.076 30.2467 38.3991C30.2467 38.3801 30.2467 38.3548 30.2403 38.3358H30.2467C30.8264 38.0322 31.5081 38.0764 32.0497 38.3991C32.0561 39.0254 31.763 39.6327 31.2023 39.9806C31.1902 39.9933 31.1705 39.9996 31.1514 40.0122Z" fill="#F6BB42"/>
<path d="M28.3353 38.3991C28.3353 39.076 28.7233 39.6643 29.291 39.9806C28.7303 39.6516 28.0295 39.6074 27.437 39.949C27.4185 39.9616 27.3982 39.9743 27.3797 39.9869V39.9806C26.8254 39.6327 26.526 39.0254 26.5323 38.3991C27.0796 38.0764 27.7556 38.0322 28.3353 38.3358H28.3417C28.3353 38.3548 28.3353 38.3801 28.3353 38.3991Z" fill="#EDAB37"/>
<path d="M27.437 39.9493C28.0295 39.6077 28.7303 39.652 29.291 39.981C28.7233 40.2973 28.3353 40.8856 28.3353 41.5625C28.3353 41.5809 28.3353 41.6068 28.3417 41.6258H28.3353C27.7556 41.9294 27.0796 41.8788 26.5323 41.5625C26.526 40.9299 26.8254 40.3289 27.3797 39.9873C27.3982 39.9746 27.4185 39.962 27.437 39.9493Z" fill="#F6BB42"/>
<path d="M28.335 41.562C28.335 40.8851 28.723 40.2968 29.2906 39.9805C29.8583 40.2968 30.2463 40.8851 30.2463 41.562C30.2463 41.5803 30.2463 41.6006 30.2399 41.6189C30.2208 42.2705 29.8379 42.8336 29.2906 43.1435C28.7433 42.8399 28.3604 42.2769 28.3413 41.6253C28.335 41.6063 28.335 41.5803 28.335 41.562Z" fill="#FFCE54"/>
<path d="M36.9367 52.0009V50.737C36.9361 50.737 36.9355 50.7363 36.9348 50.7363H35.6644C35.3121 50.7363 35.0273 51.0191 35.0273 51.3689C35.0273 51.7188 35.3121 52.0016 35.6644 52.0016H36.9348C36.9355 52.0016 36.9361 52.0009 36.9367 52.0009Z" fill="#F6BB42"/>
<path d="M36.9367 54.5312V53.2672C36.9361 53.2672 36.9355 53.2666 36.9348 53.2666H35.6644C35.3121 53.2666 35.0273 53.5494 35.0273 53.8992C35.0273 54.2491 35.3121 54.5318 35.6644 54.5318H36.9348C36.9355 54.5318 36.9361 54.5312 36.9367 54.5312Z" fill="#F6BB42"/>
<path d="M36.9367 57.0615V55.7975C36.9361 55.7975 36.9355 55.7969 36.9348 55.7969H35.6644C35.3121 55.7969 35.0273 56.0797 35.0273 56.4295C35.0273 56.7793 35.3121 57.0621 35.6644 57.0621H36.9348C36.9355 57.0621 36.9361 57.0615 36.9367 57.0615Z" fill="#F6BB42"/>
<path d="M21.6523 55.7975V57.0615C21.653 57.0615 21.6536 57.0621 21.6543 57.0621H22.9246C23.277 57.0621 23.5617 56.7793 23.5617 56.4295C23.5617 56.0797 23.277 55.7969 22.9246 55.7969H21.6543C21.6536 55.7969 21.653 55.7975 21.6523 55.7975Z" fill="#F6BB42"/>
<path d="M21.6523 53.2672V54.5312C21.653 54.5312 21.6536 54.5318 21.6543 54.5318H22.9246C23.277 54.5318 23.5617 54.2491 23.5617 53.8992C23.5617 53.5494 23.277 53.2666 22.9246 53.2666H21.6543C21.6536 53.2666 21.653 53.2672 21.6523 53.2672Z" fill="#F6BB42"/>
<path d="M21.6523 50.737V52.0009C21.653 52.0009 21.6536 52.0016 21.6543 52.0016H22.9246C23.277 52.0016 23.5617 51.7188 23.5617 51.3689C23.5617 51.0191 23.277 50.7363 22.9246 50.7363H21.6543C21.6536 50.7363 21.653 50.737 21.6523 50.737Z" fill="#F6BB42"/>
<path d="M49.6701 34.9199H42.0312V45.0417H49.6701H57.3154V34.9199H49.6701Z" fill="#E6E9ED"/>
<path d="M51.5808 27.3281C51.9312 27.3281 52.2179 27.6128 52.2179 27.9607V29.226C52.2179 29.5739 51.9312 29.8586 51.5808 29.8586H47.7582C47.4078 29.8586 47.1211 29.5739 47.1211 29.226V27.9607C47.1211 27.6128 47.4078 27.3281 47.7582 27.3281H51.5808Z" fill="#656D78"/>
<path d="M42.0312 49.4693C42.0312 48.4192 42.885 47.5715 43.9426 47.5715C42.885 47.5715 42.0312 46.7238 42.0312 45.6736V45.041H49.6701H57.3154V45.6736C57.3154 46.7238 56.4617 47.5715 55.4041 47.5715C56.4617 47.5715 57.3154 48.4192 57.3154 49.4693V50.7345V53.265V55.7955V62.7542C57.3154 64.8545 55.608 66.5499 53.4928 66.5499H45.8539C43.7451 66.5499 42.0312 64.8545 42.0312 62.7542V55.7955V53.265V50.7345V49.4693Z" fill="#FFCE54"/>
<path d="M57.3154 34.9193H49.6701H42.0312V34.2867C42.0312 33.2366 42.885 32.3889 43.9426 32.3889H46.4846C47.1912 32.3889 47.7588 31.8258 47.7588 31.1236V29.8584H51.5815V31.1236C51.5815 31.8195 52.1549 32.3889 52.8557 32.3889H55.4041C56.4617 32.3889 57.3154 33.2366 57.3154 34.2867V34.9193Z" fill="#FFCE54"/>
<path d="M48.7202 38.3357C48.7394 37.6841 49.1223 37.121 49.6695 36.8174C50.2168 37.121 50.5997 37.6841 50.6188 38.3357C50.6252 38.3546 50.6252 38.3799 50.6252 38.3989C50.6252 39.0758 50.2372 39.6641 49.6695 39.9805C49.1019 39.6641 48.7139 39.0758 48.7139 38.3989C48.7139 38.3799 48.7139 38.3546 48.7202 38.3357Z" fill="#FFCE54"/>
<path d="M50.6256 41.562C50.6256 40.8851 50.2376 40.2968 49.6699 39.9805C50.2306 40.3094 50.9378 40.3474 51.5303 40.0121C51.5494 39.9994 51.5691 39.9931 51.5812 39.9805C52.1419 40.3284 52.435 40.9357 52.4286 41.562C51.8813 41.8846 51.2053 41.9289 50.6256 41.6189H50.6192C50.6256 41.6006 50.6256 41.5803 50.6256 41.562Z" fill="#EDAB37"/>
<path d="M51.5303 40.0122C50.9378 40.3475 50.2306 40.3096 49.6699 39.9806C50.2376 39.6643 50.6256 39.076 50.6256 38.3991C50.6256 38.3801 50.6256 38.3548 50.6192 38.3358H50.6256C51.2053 38.0322 51.8871 38.0764 52.4286 38.3991C52.435 39.0254 52.1419 39.6327 51.5812 39.9806C51.5691 39.9933 51.5494 39.9996 51.5303 40.0122Z" fill="#F6BB42"/>
<path d="M48.7142 38.3991C48.7142 39.076 49.1022 39.6643 49.6699 39.9806C49.1092 39.6516 48.4084 39.6074 47.8159 39.949C47.7974 39.9616 47.7771 39.9743 47.7586 39.9869V39.9806C47.2043 39.6327 46.9049 39.0254 46.9112 38.3991C47.4585 38.0764 48.1345 38.0322 48.7142 38.3358H48.7206C48.7142 38.3548 48.7142 38.3801 48.7142 38.3991Z" fill="#EDAB37"/>
<path d="M47.8159 39.9493C48.4084 39.6077 49.1092 39.652 49.6699 39.981C49.1022 40.2973 48.7142 40.8856 48.7142 41.5625C48.7142 41.5809 48.7142 41.6068 48.7206 41.6258H48.7142C48.1345 41.9294 47.4585 41.8788 46.9112 41.5625C46.9049 40.9299 47.2043 40.3289 47.7586 39.9873C47.7771 39.9746 47.7974 39.962 47.8159 39.9493Z" fill="#F6BB42"/>
<path d="M48.7139 41.562C48.7139 40.8851 49.1019 40.2968 49.6695 39.9805C50.2372 40.2968 50.6252 40.8851 50.6252 41.562C50.6252 41.5803 50.6252 41.6006 50.6188 41.6189C50.5997 42.2705 50.2168 42.8336 49.6695 43.1435C49.1223 42.8399 48.7394 42.2769 48.7202 41.6253C48.7139 41.6063 48.7139 41.5803 48.7139 41.562Z" fill="#FFCE54"/>
<path d="M57.3156 52.0009V50.737C57.315 50.737 57.3144 50.7363 57.3137 50.7363H56.0434C55.691 50.7363 55.4062 51.0191 55.4062 51.3689C55.4062 51.7188 55.691 52.0016 56.0434 52.0016H57.3137C57.3144 52.0016 57.315 52.0009 57.3156 52.0009Z" fill="#F6BB42"/>
<path d="M57.3156 54.5312V53.2672C57.315 53.2672 57.3144 53.2666 57.3137 53.2666H56.0434C55.691 53.2666 55.4062 53.5494 55.4062 53.8992C55.4062 54.2491 55.691 54.5318 56.0434 54.5318H57.3137C57.3144 54.5318 57.315 54.5312 57.3156 54.5312Z" fill="#F6BB42"/>
<path d="M57.3156 57.0615V55.7975C57.315 55.7975 57.3144 55.7969 57.3137 55.7969H56.0434C55.691 55.7969 55.4062 56.0797 55.4062 56.4295C55.4062 56.7793 55.691 57.0621 56.0434 57.0621H57.3137C57.3144 57.0621 57.315 57.0615 57.3156 57.0615Z" fill="#F6BB42"/>
<path d="M42.0312 55.7975V57.0615C42.0319 57.0615 42.0325 57.0621 42.0332 57.0621H43.3035C43.6559 57.0621 43.9407 56.7793 43.9407 56.4295C43.9407 56.0797 43.6559 55.7969 43.3035 55.7969H42.0332C42.0325 55.7969 42.0319 55.7975 42.0312 55.7975Z" fill="#F6BB42"/>
<path d="M42.0312 53.2672V54.5312C42.0319 54.5312 42.0325 54.5318 42.0332 54.5318H43.3035C43.6559 54.5318 43.9407 54.2491 43.9407 53.8992C43.9407 53.5494 43.6559 53.2666 43.3035 53.2666H42.0332C42.0325 53.2666 42.0319 53.2672 42.0312 53.2672Z" fill="#F6BB42"/>
<path d="M42.0312 50.737V52.0009C42.0319 52.0009 42.0325 52.0016 42.0332 52.0016H43.3035C43.6559 52.0016 43.9407 51.7188 43.9407 51.3689C43.9407 51.0191 43.6559 50.7363 43.3035 50.7363H42.0332C42.0325 50.7363 42.0319 50.737 42.0312 50.737Z" fill="#F6BB42"/>
<path d="M70.6859 38.082H63.6836V47.3604H70.6859H77.6941V38.082H70.6859Z" fill="#E6E9ED"/>
<path d="M72.4377 26.0635C72.7589 26.0635 73.0217 26.3244 73.0217 26.6434V27.8032C73.0217 28.1221 72.7589 28.3831 72.4377 28.3831H68.9336C68.6124 28.3831 68.3496 28.1221 68.3496 27.8032V26.6434C68.3496 26.3244 68.6124 26.0635 68.9336 26.0635H72.4377Z" fill="#656D78"/>
<path d="M63.6836 51.4187C63.6836 50.456 64.4662 49.679 65.4356 49.679C64.4662 49.679 63.6836 48.9019 63.6836 47.9393V47.3594H70.6859H77.6941V47.9393C77.6941 48.9019 76.9115 49.679 75.9421 49.679C76.9115 49.679 77.6941 50.456 77.6941 51.4187V52.5785V54.8981V57.2176V63.5965C77.6941 65.5218 76.129 67.0759 74.19 67.0759H67.1877C65.2546 67.0759 63.6836 65.5218 63.6836 63.5965V57.2176V54.8981V52.5785V51.4187Z" fill="#FFCE54"/>
<path d="M77.6941 38.0816H70.6859H63.6836V37.5017C63.6836 36.539 64.4662 35.762 65.4356 35.762H67.7659C68.4135 35.762 68.9339 35.2459 68.9339 34.6022V33.4424H72.438V34.6022C72.438 35.2401 72.9636 35.762 73.606 35.762H75.9421C76.9115 35.762 77.6941 36.539 77.6941 37.5017V38.0816Z" fill="#FFCE54"/>
<path d="M69.8154 41.2121C69.8329 40.6148 70.1839 40.0987 70.6856 39.8203C71.1873 40.0987 71.5382 40.6148 71.5558 41.2121C71.5616 41.2295 71.5616 41.2527 71.5616 41.2701C71.5616 41.8905 71.2059 42.4299 70.6856 42.7198C70.1652 42.4299 69.8096 41.8905 69.8096 41.2701C69.8096 41.2527 69.8096 41.2295 69.8154 41.2121Z" fill="#FFCE54"/>
<path d="M71.5616 44.1695C71.5616 43.549 71.2059 43.0097 70.6855 42.7197C71.1995 43.0213 71.8477 43.0561 72.3909 42.7487C72.4084 42.7371 72.4265 42.7313 72.4376 42.7197C72.9515 43.0387 73.2202 43.5954 73.2143 44.1695C72.7127 44.4652 72.093 44.5058 71.5616 44.2217H71.5557C71.5616 44.2048 71.5616 44.1863 71.5616 44.1695Z" fill="#EDAB37"/>
<path d="M72.3909 42.75C71.8477 43.0573 71.1995 43.0225 70.6855 42.721C71.2059 42.431 71.5616 41.8917 71.5616 41.2713C71.5616 41.2539 71.5616 41.2307 71.5557 41.2133H71.5616C72.093 40.9349 72.7179 40.9755 73.2143 41.2713C73.2202 41.8454 72.9515 42.4021 72.4376 42.721C72.4265 42.7326 72.4084 42.7384 72.3909 42.75Z" fill="#F6BB42"/>
<path d="M69.8091 41.2713C69.8091 41.8917 70.1648 42.4311 70.6851 42.721C70.1712 42.4195 69.5288 42.3789 68.9856 42.692C68.9687 42.7036 68.95 42.7152 68.9331 42.7268V42.721C68.425 42.4021 68.1505 41.8454 68.1563 41.2713C68.658 40.9755 69.2777 40.9349 69.8091 41.2133H69.8149C69.8091 41.2307 69.8091 41.2539 69.8091 41.2713Z" fill="#EDAB37"/>
<path d="M68.9856 42.6914C69.5288 42.3782 70.1712 42.4188 70.6851 42.7204C70.1648 43.0103 69.8091 43.5496 69.8091 44.1701C69.8091 44.1869 69.8091 44.2107 69.8149 44.2281H69.8091C69.2777 44.5064 68.658 44.46 68.1563 44.1701C68.1505 43.5902 68.425 43.0393 68.9331 42.7262C68.95 42.7146 68.9687 42.703 68.9856 42.6914Z" fill="#F6BB42"/>
<path d="M69.8096 44.1695C69.8096 43.549 70.1652 43.0097 70.6856 42.7197C71.2059 43.0097 71.5616 43.549 71.5616 44.1695C71.5616 44.1863 71.5616 44.2048 71.5558 44.2217C71.5382 44.819 71.1873 45.3351 70.6856 45.6192C70.1839 45.3409 69.8329 44.8248 69.8154 44.2275C69.8096 44.2101 69.8096 44.1863 69.8096 44.1695Z" fill="#FFCE54"/>
<path d="M77.6946 53.7393V52.5807C77.694 52.5807 77.6935 52.5801 77.6929 52.5801H76.5284C76.2054 52.5801 75.9443 52.8393 75.9443 53.16C75.9443 53.4807 76.2054 53.7399 76.5284 53.7399H77.6929C77.6935 53.7399 77.694 53.7393 77.6946 53.7393Z" fill="#F6BB42"/>
<path d="M77.6946 56.0586V54.9C77.694 54.9 77.6935 54.8994 77.6929 54.8994H76.5284C76.2054 54.8994 75.9443 55.1586 75.9443 55.4793C75.9443 55.8 76.2054 56.0592 76.5284 56.0592H77.6929C77.6935 56.0592 77.694 56.0586 77.6946 56.0586Z" fill="#F6BB42"/>
<path d="M77.6946 58.3789V57.2203C77.694 57.2203 77.6935 57.2197 77.6929 57.2197H76.5284C76.2054 57.2197 75.9443 57.4789 75.9443 57.7996C75.9443 58.1203 76.2054 58.3795 76.5284 58.3795H77.6929C77.6935 58.3795 77.694 58.3789 77.6946 58.3789Z" fill="#F6BB42"/>
<path d="M63.6836 57.2203V58.3789C63.6842 58.3789 63.6848 58.3795 63.6853 58.3795H64.8499C65.1728 58.3795 65.4339 58.1203 65.4339 57.7996C65.4339 57.4789 65.1728 57.2197 64.8499 57.2197H63.6853C63.6848 57.2197 63.6842 57.2203 63.6836 57.2203Z" fill="#F6BB42"/>
<path d="M63.6836 54.9V56.0586C63.6842 56.0586 63.6848 56.0592 63.6853 56.0592H64.8499C65.1728 56.0592 65.4339 55.8 65.4339 55.4793C65.4339 55.1586 65.1728 54.8994 64.8499 54.8994H63.6853C63.6848 54.8994 63.6842 54.9 63.6836 54.9Z" fill="#F6BB42"/>
<path d="M63.6836 52.5807V53.7393C63.6842 53.7393 63.6848 53.7399 63.6853 53.7399H64.8499C65.1728 53.7399 65.4339 53.4807 65.4339 53.16C65.4339 52.8393 65.1728 52.5801 64.8499 52.5801H63.6853C63.6848 52.5801 63.6842 52.5807 63.6836 52.5807Z" fill="#F6BB42"/>
<path d="M91.0648 38.0811H84.0625V47.3594H91.0648H98.073V38.0811H91.0648Z" fill="#E6E9ED"/>
<path d="M84.0625 51.4187C84.0625 50.456 84.8451 49.679 85.8145 49.679C84.8451 49.679 84.0625 48.9019 84.0625 47.9393V47.3594H91.0648H98.073V47.9393C98.073 48.9019 97.2904 49.679 96.321 49.679C97.2904 49.679 98.073 50.456 98.073 51.4187V52.5785V54.8981V57.2176V63.5965C98.073 65.5218 96.5079 67.0759 94.5689 67.0759H87.5666C85.6335 67.0759 84.0625 65.5218 84.0625 63.5965V57.2176V54.8981V52.5785V51.4187Z" fill="#FFCE54"/>
<path d="M98.073 38.0806H91.0648H84.0625V37.5007C84.0625 36.5381 84.8451 35.761 85.8145 35.761H88.1448C88.7924 35.761 89.3128 35.2449 89.3128 34.6012V33.4414H92.8169V34.6012C92.8169 35.2391 93.3425 35.761 93.9849 35.761H96.321C97.2904 35.761 98.073 36.5381 98.073 37.5007V38.0806Z" fill="#FFCE54"/>
<path d="M90.1943 41.2121C90.2118 40.6148 90.5628 40.0987 91.0645 39.8203C91.5662 40.0987 91.9172 40.6148 91.9347 41.2121C91.9405 41.2295 91.9405 41.2527 91.9405 41.2701C91.9405 41.8905 91.5849 42.4299 91.0645 42.7198C90.5441 42.4299 90.1885 41.8905 90.1885 41.2701C90.1885 41.2527 90.1885 41.2295 90.1943 41.2121Z" fill="#FFCE54"/>
<path d="M91.9405 44.1695C91.9405 43.549 91.5848 43.0097 91.0645 42.7197C91.5784 43.0213 92.2266 43.0561 92.7698 42.7487C92.7873 42.7371 92.8054 42.7313 92.8165 42.7197C93.3304 43.0387 93.5991 43.5954 93.5932 44.1695C93.0916 44.4652 92.4719 44.5058 91.9405 44.2217H91.9346C91.9405 44.2048 91.9405 44.1863 91.9405 44.1695Z" fill="#EDAB37"/>
<path d="M92.7698 42.749C92.2266 43.0564 91.5784 43.0216 91.0645 42.72C91.5848 42.4301 91.9405 41.8908 91.9405 41.2703C91.9405 41.2529 91.9405 41.2297 91.9346 41.2123H91.9405C92.4719 40.9339 93.0968 40.9745 93.5932 41.2703C93.5991 41.8444 93.3304 42.4011 92.8165 42.72C92.8054 42.7316 92.7873 42.7374 92.7698 42.749Z" fill="#F6BB42"/>
<path d="M90.188 41.2703C90.188 41.8908 90.5437 42.4301 91.064 42.72C90.5501 42.4185 89.9077 42.3779 89.3645 42.691C89.3476 42.7026 89.3289 42.7142 89.312 42.7258V42.72C88.8039 42.4011 88.5294 41.8444 88.5352 41.2703C89.0369 40.9745 89.6566 40.9339 90.188 41.2123H90.1938C90.188 41.2297 90.188 41.2529 90.188 41.2703Z" fill="#EDAB37"/>
<path d="M89.3645 42.6904C89.9077 42.3772 90.5501 42.4178 91.064 42.7194C90.5437 43.0093 90.188 43.5486 90.188 44.1691C90.188 44.1859 90.188 44.2097 90.1938 44.2271H90.188C89.6566 44.5055 89.0369 44.4591 88.5352 44.1691C88.5294 43.5892 88.8039 43.0383 89.312 42.7252C89.3289 42.7136 89.3476 42.702 89.3645 42.6904Z" fill="#F6BB42"/>
<path d="M90.1885 44.1695C90.1885 43.549 90.5441 43.0097 91.0645 42.7197C91.5849 43.0097 91.9405 43.549 91.9405 44.1695C91.9405 44.1863 91.9405 44.2048 91.9347 44.2217C91.9172 44.819 91.5662 45.3351 91.0645 45.6192C90.5628 45.3409 90.2118 44.8248 90.1943 44.2275C90.1885 44.2101 90.1885 44.1863 90.1885 44.1695Z" fill="#FFCE54"/>
<path d="M98.0735 53.7383V52.5797C98.073 52.5797 98.0724 52.5791 98.0718 52.5791H96.9073C96.5843 52.5791 96.3232 52.8383 96.3232 53.159C96.3232 53.4797 96.5843 53.7389 96.9073 53.7389H98.0718C98.0724 53.7389 98.073 53.7383 98.0735 53.7383Z" fill="#F6BB42"/>
<path d="M98.0735 56.0577V54.899C98.073 54.899 98.0724 54.8984 98.0718 54.8984H96.9073C96.5843 54.8984 96.3232 55.1577 96.3232 55.4783C96.3232 55.799 96.5843 56.0582 96.9073 56.0582H98.0718C98.0724 56.0582 98.073 56.0577 98.0735 56.0577Z" fill="#F6BB42"/>
<path d="M98.0735 58.378V57.2193C98.073 57.2193 98.0724 57.2188 98.0718 57.2188H96.9073C96.5843 57.2188 96.3232 57.478 96.3232 57.7986C96.3232 58.1193 96.5843 58.3785 96.9073 58.3785H98.0718C98.0724 58.3785 98.073 58.378 98.0735 58.378Z" fill="#F6BB42"/>
<path d="M84.0625 57.2193V58.378C84.0631 58.378 84.0637 58.3785 84.0643 58.3785H85.2288C85.5517 58.3785 85.8128 58.1193 85.8128 57.7986C85.8128 57.478 85.5517 57.2188 85.2288 57.2188H84.0643C84.0637 57.2188 84.0631 57.2193 84.0625 57.2193Z" fill="#F6BB42"/>
<path d="M84.0625 54.899V56.0577C84.0631 56.0577 84.0637 56.0582 84.0643 56.0582H85.2288C85.5517 56.0582 85.8128 55.799 85.8128 55.4783C85.8128 55.1577 85.5517 54.8984 85.2288 54.8984H84.0643C84.0637 54.8984 84.0631 54.899 84.0625 54.899Z" fill="#F6BB42"/>
<path d="M84.0625 52.5797V53.7383C84.0631 53.7383 84.0637 53.7389 84.0643 53.7389H85.2288C85.5517 53.7389 85.8128 53.4797 85.8128 53.159C85.8128 52.8383 85.5517 52.5791 85.2288 52.5791H84.0643C84.0637 52.5791 84.0631 52.5797 84.0625 52.5797Z" fill="#F6BB42"/>
<path d="M110.781 86.5139H43.6981C38.054 86.5139 33.4785 81.9706 33.4785 76.3663C33.4785 70.762 38.054 66.2188 43.6981 66.2188H110.781C116.425 66.2188 121 70.762 121 76.3663C121 81.9706 116.425 86.5139 110.781 86.5139Z" fill="#8B4432"/>
<path d="M44.0226 82.2209C47.2787 82.2209 49.9183 79.5999 49.9183 76.3668C49.9183 73.1337 47.2787 70.5127 44.0226 70.5127C40.7665 70.5127 38.127 73.1337 38.127 76.3668C38.127 79.5999 40.7665 82.2209 44.0226 82.2209Z" fill="#BF5843"/>
<path d="M67.0295 82.2209C70.2855 82.2209 72.9251 79.5999 72.9251 76.3668C72.9251 73.1337 70.2855 70.5127 67.0295 70.5127C63.7734 70.5127 61.1338 73.1337 61.1338 76.3668C61.1338 79.5999 63.7734 82.2209 67.0295 82.2209Z" fill="#BF5843"/>
<path d="M89.0392 82.2209C92.2953 82.2209 94.9349 79.5999 94.9349 76.3668C94.9349 73.1337 92.2953 70.5127 89.0392 70.5127C85.7831 70.5127 83.1436 73.1337 83.1436 76.3668C83.1436 79.5999 85.7831 82.2209 89.0392 82.2209Z" fill="#BF5843"/>
<path d="M116.946 76.3671C116.946 79.6013 114.305 82.2214 111.05 82.2214C109.819 82.2214 108.676 81.8467 107.73 81.2067C106.174 80.1529 105.154 78.3784 105.154 76.3671C105.154 74.3558 106.174 72.5812 107.73 71.5274C108.676 70.8874 109.819 70.5127 111.05 70.5127C114.305 70.5127 116.946 73.1328 116.946 76.3671Z" fill="#BF5843"/>
<path d="M110.306 76.366C110.306 78.3773 109.287 80.1518 107.73 81.2056C106.174 80.1518 105.154 78.3773 105.154 76.366C105.154 74.3547 106.174 72.5802 107.73 71.5264C109.287 72.5802 110.306 74.3544 110.306 76.366Z" fill="#D3674A"/>
<path d="M88.2953 76.366C88.2953 78.3773 87.2759 80.1518 85.7194 81.2056C84.1629 80.1518 83.1436 78.3773 83.1436 76.366C83.1436 74.3547 84.1629 72.5802 85.7194 71.5264C87.2759 72.5802 88.2953 74.3544 88.2953 76.366Z" fill="#D3674A"/>
<path d="M66.2855 76.366C66.2855 78.3773 65.2662 80.1518 63.7097 81.2056C62.1531 80.1518 61.1338 78.3773 61.1338 76.366C61.1338 74.3547 62.1531 72.5802 63.7097 71.5264C65.2662 72.5802 66.2855 74.3544 66.2855 76.366Z" fill="#D3674A"/>
<path d="M43.2787 76.366C43.2787 77.1648 43.1188 77.9271 42.8253 78.6218C42.3825 79.6756 41.6409 80.5707 40.7028 81.2056C39.7647 80.5707 39.0231 79.6756 38.5803 78.6218C38.2868 77.9271 38.127 77.1648 38.127 76.366C38.127 75.9653 38.1663 75.575 38.2449 75.1951C38.5541 73.6756 39.4555 72.3694 40.7028 71.5264C41.9501 72.3694 42.8516 73.6756 43.1608 75.1951C43.2394 75.5747 43.2787 75.965 43.2787 76.366Z" fill="#D3674A"/>
<path d="M75.4335 20.3125H66V26.1541H75.4335V20.3125Z" fill="#CCCCCC"/>
<path d="M71.997 0H63.46V20.312H77.9744V5.93528C77.9744 2.65736 75.2982 0 71.997 0Z" fill="#CCCCCC"/>
<path d="M69.64 0H63.46V20.312H69.64V0Z" fill="#B3B3B3"/>
<path d="M67.9365 20.3115H66V25.9491H67.9365V20.3115Z" fill="#B3B3B3"/>
<path d="M58.1101 0H54.7617V20.312H58.1101V0Z" fill="#CCCCCC"/>
<path d="M58.111 6.44824H56.8008V13.8638H58.111V6.44824Z" fill="#999999"/>
<path d="M75.4335 22.1006V23.6956L66 25.6444V24.0494L75.4335 22.1006Z" fill="#B3B3B3"/>
<path d="M75.4335 20.3125V21.4261L66 23.375V21.7826L73.1013 20.3125H75.4335Z" fill="#B3B3B3"/>
</g>
<defs>
<clipPath id="clip0">
<rect width="121" height="86" fill="white"/>
</clipPath>
</defs>
</svg>
