<svg width="80" height="80" viewBox="0 0 80 80" fill="none" xmlns="http://www.w3.org/2000/svg">
<g clip-path="url(#clip0)">
<path d="M39.9022 2.61719C34.1835 2.61719 29.5479 7.25298 29.5479 12.9716V17.1583C30.2399 16.5169 31.2244 16.1682 32.1854 16.2966V15.7807C32.1854 15.3705 32.5355 15.0464 32.9416 15.0772C36.9449 15.3649 41.0191 14.0927 44.0996 12.0803C44.3873 11.8924 44.768 11.9391 45.0016 12.1903C47.6352 15.0213 47.6193 14.9116 47.6193 15.2813V16.2944C48.6727 16.1364 49.6071 16.4621 50.2563 17.0657V12.9718C50.2566 7.25298 45.621 2.61719 39.9022 2.61719Z" fill="#60626D"/>
<path d="M32.8038 12.9718C32.8038 7.80705 36.5851 3.52688 41.5302 2.74563C40.9998 2.66188 40.4563 2.61719 39.9022 2.61719C34.1835 2.61719 29.5479 7.25298 29.5479 12.9716V17.1583C30.2399 16.5168 31.2244 16.1682 32.1854 16.2966V15.7807C32.1854 15.4179 32.4596 15.1236 32.8038 15.0814V12.9718Z" fill="#515151"/>
<path d="M47.6053 15.9382V21.6325C47.6053 21.6942 47.602 21.7551 47.6006 21.8167C49.6156 22.1218 51.1939 20.6659 51.1939 18.8778C51.1937 17.0861 49.6142 15.6371 47.6053 15.9382Z" fill="#F0A479"/>
<path d="M50.2609 16.6809C49.6089 16.07 48.6671 15.74 47.6053 15.8992V21.5934C47.6053 21.6551 47.602 21.7161 47.6006 21.7776C48.6657 21.9389 49.6086 21.608 50.2609 20.9961V16.6809Z" fill="#E59770"/>
<path d="M32.208 21.5924V15.8859C30.4493 15.6511 28.6104 17.0008 28.6104 18.8306C28.6104 20.621 30.1891 22.0833 32.2125 21.7771C32.211 21.7155 32.208 21.6541 32.208 21.5924Z" fill="#F0A479"/>
<path d="M32.2082 20.7069C31.7865 20.1912 31.5402 19.5368 31.5402 18.8306C31.5402 18.1482 31.7961 17.5326 32.2082 17.0411V15.8859C30.4494 15.6511 28.6104 17.0009 28.6104 18.8306C28.6104 20.6208 30.1891 22.0831 32.2125 21.7769C32.2111 21.7153 32.208 21.6539 32.208 21.5924V20.7069H32.2082Z" fill="#E59770"/>
<path d="M40.0123 28.8422C38.3395 28.8422 36.8693 28.383 35.667 27.6147V31.8568L39.9937 37.1975L44.3203 31.8568V27.5C43.0947 28.3455 41.6106 28.8422 40.0123 28.8422Z" fill="#F4BA99"/>
<path d="M38.8865 28.7719C37.675 28.6149 36.5915 28.2078 35.667 27.6172V31.8593L38.8865 35.8333V28.7719Z" fill="#E59770"/>
<path d="M55.7666 35.9172L44.3207 31.4844L39.9941 36.825L35.6674 31.4844L24.2334 35.9172C24.2334 35.9172 20 37.6575 20 42.4835C20 46.8504 20 57.8884 20 61.416C20 62.1951 20.6317 62.8266 21.4106 62.8266C22.0042 62.8266 57.9865 62.8266 58.5893 62.8266C59.3684 62.8266 59.9999 62.1949 59.9999 61.416C59.9999 57.8884 59.9999 46.8502 59.9999 42.4835C60.0001 37.6575 55.7666 35.9172 55.7666 35.9172Z" fill="#E4EAF8"/>
<path d="M23.2195 61.4266C23.2195 57.8987 23.2195 45.2508 23.2195 40.8838C23.2195 38.0222 24.7078 36.2458 25.9195 35.2734L24.2334 35.9272C24.2334 35.9272 20 37.6675 20 42.4937C20 46.8606 20 57.8989 20 61.4268C20 62.2058 20.6317 62.8374 21.4106 62.8374C21.5152 62.8374 22.7178 62.8374 24.6302 62.8374C23.8513 62.8372 23.2195 62.2057 23.2195 61.4266Z" fill="#D8DCE5"/>
<path d="M45.0018 11.8265C44.7681 11.5752 44.3873 11.5285 44.0998 11.7165C41.0193 13.7288 36.9451 15.001 32.9418 14.7134C32.5357 14.6826 32.1855 15.0067 32.1855 15.4168V21.6026C32.1855 25.5782 35.3007 29.2095 40.0128 29.2095C44.2073 29.2095 47.6198 25.797 47.6198 21.6026V14.9174C47.6196 14.5477 47.6354 14.6573 45.0018 11.8265Z" fill="#F4BA99"/>
<path d="M35.4102 21.5911V14.6875C34.5906 14.7531 33.7648 14.7608 32.9418 14.7017C32.5357 14.6709 32.1855 14.995 32.1855 15.4052V21.5911C32.1855 25.5668 35.3007 29.1981 40.0127 29.1981C40.527 29.1981 41.0292 29.1462 41.5151 29.0484C38.0376 28.3488 35.4102 25.2713 35.4102 21.5911Z" fill="#E59770"/>
<path d="M45.2182 39.5692L48.4535 33.085L44.3207 31.4844L39.9941 36.825L44.2124 39.821C44.5538 40.0635 45.0312 39.9439 45.2182 39.5692Z" fill="#D8DCE5"/>
<path d="M34.7754 39.5692L31.54 33.085L35.6729 31.4844L39.9994 36.825L35.7812 39.821C35.4397 40.0635 34.9624 39.9439 34.7754 39.5692Z" fill="#D8DCE5"/>
<path d="M44.3946 57.6053L41.6177 41.1719H39.9999H39.9947H38.3767L35.5999 57.6053C35.5706 57.817 35.6328 58.032 35.7652 58.1779L39.5989 62.4024C39.8125 62.6377 40.1819 62.6377 40.3955 62.4024L44.2293 58.1779C44.3616 58.032 44.4238 57.8168 44.3946 57.6053Z" fill="#44A4EC"/>
<path d="M38.99 58.1779C38.8577 58.032 38.7955 57.817 38.8247 57.6053L41.6016 41.1719H39.9999H39.9947H38.3767L35.5999 57.6053C35.5706 57.817 35.6328 58.032 35.7652 58.1779L39.5989 62.4022C39.8125 62.6375 40.1819 62.6375 40.3955 62.4022L41.6096 61.0644L38.99 58.1779Z" fill="#4696D2"/>
<path d="M40.0002 36.8397V36.8359L39.9975 36.8378L39.9949 36.8359V36.8397L36.9268 39.0186L38.3771 41.2014H39.9949H40.0002H41.618L43.0683 39.0186L40.0002 36.8397Z" fill="#44A4EC"/>
<path d="M41.6064 37.9811L39.9992 36.8397V36.8359L39.9966 36.8378L39.9939 36.8359V36.8397L36.9258 39.0188L38.3761 41.2014H39.9939H39.9991H41.5955L40.3505 39.3277C40.2361 39.1555 40.2791 38.9236 40.4477 38.8039L41.6064 37.9811Z" fill="#4696D2"/>
<path d="M59.9022 17.1484C54.1835 17.1484 49.5479 21.7842 49.5479 27.5028V31.6896C50.2399 31.0481 51.2244 30.6994 52.1854 30.8278V30.3119C52.1854 29.9017 52.5355 29.5777 52.9416 29.6085C56.9449 29.8961 61.0191 28.6239 64.0996 26.6116C64.3873 26.4236 64.768 26.4703 65.0016 26.7216C67.6352 29.5525 67.6193 29.4428 67.6193 29.8125V30.8256C68.6727 30.6677 69.6071 30.9933 70.2563 31.5969V27.5028C70.2566 21.7841 65.621 17.1484 59.9022 17.1484Z" fill="#60626D"/>
<path d="M52.8038 27.5422C52.8038 22.3774 56.5851 18.0972 61.5302 17.3159C60.9998 17.2322 60.4563 17.1875 59.9022 17.1875C54.1835 17.1875 49.5479 21.8233 49.5479 27.5422V31.7289C50.2399 31.0874 51.2244 30.7388 52.1854 30.8672V30.3513C52.1854 29.9884 52.4596 29.6942 52.8038 29.652V27.5422Z" fill="#515151"/>
<path d="M67.6053 30.4695V36.1637C67.6053 36.2254 67.602 36.2864 67.6006 36.3479C69.6156 36.6531 71.1939 35.1972 71.1939 33.409C71.1937 31.6173 69.6142 30.1684 67.6053 30.4695Z" fill="#F0A479"/>
<path d="M70.2609 31.2512C69.6089 30.6403 68.6672 30.3103 67.6053 30.4695V36.1637C67.6053 36.2255 67.602 36.2864 67.6006 36.348C68.6657 36.5092 69.6086 36.1783 70.2609 35.5664V31.2512Z" fill="#E59770"/>
<path d="M52.208 36.2017V30.4953C50.4493 30.2605 48.6104 31.6102 48.6104 33.44C48.6104 35.2303 50.1891 36.6927 52.2126 36.3864C52.211 36.3247 52.208 36.2633 52.208 36.2017Z" fill="#F0A479"/>
<path d="M52.2082 35.2774C51.7865 34.7616 51.5402 34.1072 51.5402 33.401C51.5402 32.7186 51.7961 32.103 52.2082 31.6114V30.4563C50.4494 30.2214 48.6104 31.5711 48.6104 33.401C48.6104 35.1913 50.1891 36.6536 52.2126 36.3474C52.2111 36.2858 52.208 36.2244 52.208 36.1628L52.2082 35.2774Z" fill="#E59770"/>
<path d="M60.0123 43.4125C58.3395 43.4125 56.8693 42.9533 55.667 42.185V46.4269L59.9937 51.7674L64.3203 46.4269V42.0703C63.0947 42.9156 61.6106 43.4125 60.0123 43.4125Z" fill="#F4BA99"/>
<path d="M58.8865 43.3031C57.675 43.1461 56.5915 42.7391 55.667 42.1484V46.3905L58.8865 50.3644V43.3031Z" fill="#E59770"/>
<path d="M75.7666 50.4875L64.3207 46.0547L59.9941 51.3953L55.6674 46.0547L44.2334 50.4875C44.2334 50.4875 40 52.228 40 57.0539C40 61.4208 40 72.459 40 75.9866C40 76.7657 40.6317 77.3972 41.4106 77.3972C42.0042 77.3972 77.9865 77.3972 78.5893 77.3972C79.3684 77.3972 79.9999 76.7655 79.9999 75.9866C79.9999 72.459 79.9999 61.4207 79.9999 57.0539C80.0001 52.2278 75.7666 50.4875 75.7666 50.4875Z" fill="#E4EAF8"/>
<path d="M43.2195 75.9963C43.2195 72.4685 43.2195 59.8208 43.2195 55.454C43.2195 52.5925 44.7078 50.8161 45.9195 49.8438L44.2334 50.4975C44.2334 50.4975 40 52.2378 40 57.0638C40 61.4307 40 72.4687 40 75.9965C40 76.7755 40.6317 77.4071 41.4108 77.4071C41.5153 77.4071 42.718 77.4071 44.6303 77.4071C43.8511 77.4071 43.2195 76.7754 43.2195 75.9963Z" fill="#D8DCE5"/>
<path d="M65.0018 26.3968C64.7681 26.1456 64.3873 26.0988 64.0998 26.2868C61.0193 28.2992 56.9451 29.5714 52.9418 29.2837C52.5357 29.2529 52.1855 29.577 52.1855 29.9872V36.173C52.1855 40.1487 55.3007 43.78 60.0127 43.78C64.2073 43.78 67.6198 40.3674 67.6198 36.173V29.4878C67.6195 29.1182 67.6354 29.2276 65.0018 26.3968Z" fill="#F4BA99"/>
<path d="M55.4102 36.1611V29.2578C54.5905 29.3234 53.7648 29.3311 52.9418 29.272C52.5357 29.2413 52.1855 29.5653 52.1855 29.9755V36.1613C52.1855 40.1368 55.3007 43.768 60.0127 43.768C60.527 43.768 61.0291 43.7161 61.5151 43.6183C58.0376 42.9186 55.4102 39.8412 55.4102 36.1611Z" fill="#E59770"/>
<path d="M65.2182 54.1395L68.4535 47.6553L64.3207 46.0547L59.9941 51.3953L64.2124 54.3913C64.5538 54.6338 65.0312 54.5142 65.2182 54.1395Z" fill="#D8DCE5"/>
<path d="M54.7754 54.1395L51.54 47.6553L55.6729 46.0547L59.9994 51.3953L55.7811 54.3913C55.4397 54.6338 54.9624 54.5142 54.7754 54.1395Z" fill="#D8DCE5"/>
<path d="M64.3946 72.1751L61.6177 55.7422H59.9999H59.9947H58.3767L55.5999 72.1751C55.5706 72.3868 55.6328 72.6018 55.7652 72.7478L59.5989 76.9721C59.8125 77.2074 60.1819 77.2074 60.3955 76.9721L64.2293 72.7478C64.3616 72.6017 64.4236 72.3868 64.3946 72.1751Z" fill="#44A4EC"/>
<path d="M58.99 72.7092C58.8577 72.5633 58.7955 72.3482 58.8247 72.1365L61.6016 55.7031H59.9999H59.9947H58.3767L55.5999 72.1365C55.5706 72.3482 55.6328 72.5633 55.7652 72.7092L59.5989 76.9335C59.8125 77.1688 60.1821 77.1688 60.3955 76.9335L61.6096 75.5956L58.99 72.7092Z" fill="#4696D2"/>
<path d="M60.0002 51.3708V51.3672L59.9975 51.3691L59.9949 51.3672V51.3708L56.9268 53.5498L58.3771 55.7327H59.9949H60.0002H61.618L63.0682 53.5498L60.0002 51.3708Z" fill="#44A4EC"/>
<path d="M61.6064 52.5123L59.9992 51.3709V51.3672L59.9966 51.3691L59.9939 51.3672V51.3709L56.9258 53.55L58.3761 55.7327H59.9939H59.9991H61.5955L60.3505 53.8589C60.2361 53.6867 60.2791 53.4548 60.4477 53.335L61.6064 52.5123Z" fill="#4696D2"/>
<path d="M48.237 77.3732V59.2151C48.237 58.5484 47.6965 58.0078 47.0296 58.0078C46.3627 58.0078 45.8223 58.5483 45.8223 59.2151V77.373C46.5591 77.3732 47.3693 77.3732 48.237 77.3732Z" fill="#D8DCE5"/>
<path d="M73.9821 77.3732V59.2151C73.9821 58.5484 73.4416 58.0078 72.7747 58.0078C72.1078 58.0078 71.5674 58.5483 71.5674 59.2151V77.373C72.4329 77.3732 73.2421 77.3732 73.9821 77.3732Z" fill="#D8DCE5"/>
<path d="M19.9022 17.1484C14.1835 17.1484 9.54785 21.7842 9.54785 27.5028V31.6896C10.2399 31.0481 11.2244 30.6994 12.1854 30.8278V30.3119C12.1854 29.9017 12.5355 29.5777 12.9416 29.6085C16.9449 29.8961 21.0191 28.6239 24.0996 26.6116C24.3873 26.4236 24.768 26.4703 25.0016 26.7216C27.6352 29.5525 27.6193 29.4428 27.6193 29.8125V30.8256C28.6727 30.6677 29.6071 30.9933 30.2563 31.5969V27.5028C30.2566 21.7841 25.621 17.1484 19.9022 17.1484Z" fill="#60626D"/>
<path d="M12.8038 27.5422C12.8038 22.3774 16.5851 18.0972 21.5302 17.3159C20.9997 17.2322 20.4563 17.1875 19.9022 17.1875C14.1835 17.1875 9.54785 21.8233 9.54785 27.5422V31.7289C10.2399 31.0874 11.2244 30.7388 12.1854 30.8672V30.3513C12.1854 29.9884 12.4596 29.6942 12.8038 29.652V27.5422Z" fill="#515151"/>
<path d="M27.6053 30.4695V36.1637C27.6053 36.2254 27.602 36.2864 27.6006 36.3479C29.6156 36.6531 31.1939 35.1972 31.1939 33.409C31.1937 31.6173 29.6142 30.1684 27.6053 30.4695Z" fill="#F0A479"/>
<path d="M30.2609 31.2512C29.6089 30.6403 28.6672 30.3103 27.6053 30.4695V36.1637C27.6053 36.2255 27.602 36.2864 27.6006 36.348C28.6657 36.5092 29.6086 36.1783 30.2609 35.5664V31.2512Z" fill="#E59770"/>
<path d="M12.2082 36.2017V30.4953C10.4494 30.2605 8.61035 31.6102 8.61035 33.44C8.61035 35.2303 10.1891 36.6927 12.2125 36.3864C12.2111 36.3247 12.2082 36.2633 12.2082 36.2017Z" fill="#F0A479"/>
<path d="M12.2082 35.2774C11.7865 34.7616 11.5402 34.1072 11.5402 33.401C11.5402 32.7186 11.7961 32.103 12.2082 31.6114V30.4563C10.4494 30.2214 8.61035 31.5711 8.61035 33.401C8.61035 35.1913 10.1891 36.6536 12.2125 36.3474C12.2111 36.2858 12.208 36.2244 12.208 36.1628L12.2082 35.2774Z" fill="#E59770"/>
<path d="M20.0123 43.4125C18.3395 43.4125 16.8693 42.9533 15.667 42.185V46.4269L19.9937 51.7674L24.3203 46.4269V42.0703C23.0947 42.9156 21.6106 43.4125 20.0123 43.4125Z" fill="#F4BA99"/>
<path d="M18.8865 43.3031C17.675 43.1461 16.5915 42.7391 15.667 42.1484V46.3905L18.8865 50.3644C18.8865 50.3642 18.8865 43.3031 18.8865 43.3031Z" fill="#E59770"/>
<path d="M35.7666 50.4875L24.3207 46.0547L19.9941 51.3953L15.6674 46.0547L4.23345 50.4875C4.23345 50.4875 0 52.228 0 57.0539C0 61.4208 0 72.459 0 75.9866C0 76.7657 0.63172 77.3972 1.41063 77.3972C2.00422 77.3972 37.9865 77.3972 38.5893 77.3972C39.3684 77.3972 39.9999 76.7655 39.9999 75.9866C39.9999 72.459 39.9999 61.4207 39.9999 57.0539C40.0001 52.2278 35.7666 50.4875 35.7666 50.4875Z" fill="#E4EAF8"/>
<path d="M3.21954 75.9963C3.21954 72.4685 3.21954 59.8208 3.21954 55.454C3.21954 52.5925 4.70782 50.8161 5.91954 49.8438L4.23345 50.4975C4.23345 50.4975 0 52.2378 0 57.0638C0 61.4307 0 72.4687 0 75.9965C0 76.7755 0.63172 77.4071 1.41063 77.4071C1.51516 77.4071 2.71782 77.4071 4.63017 77.4071C3.85126 77.4071 3.21954 76.7754 3.21954 75.9963Z" fill="#D8DCE5"/>
<path d="M25.0018 26.3968C24.7681 26.1456 24.3873 26.0988 24.0998 26.2868C21.0193 28.2992 16.9451 29.5714 12.9418 29.2837C12.5357 29.2529 12.1855 29.577 12.1855 29.9872V36.173C12.1855 40.1487 15.3007 43.78 20.0128 43.78C24.2073 43.78 27.6198 40.3674 27.6198 36.173V29.4878C27.6196 29.1182 27.6354 29.2276 25.0018 26.3968Z" fill="#F4BA99"/>
<path d="M15.4102 36.1611V29.2578C14.5906 29.3234 13.7648 29.3311 12.9418 29.272C12.5357 29.2413 12.1855 29.5653 12.1855 29.9755V36.1613C12.1855 40.1368 15.3007 43.768 20.0128 43.768C20.527 43.768 21.0292 43.7161 21.5151 43.6183C18.0376 42.9186 15.4102 39.8412 15.4102 36.1611Z" fill="#E59770"/>
<path d="M25.2182 54.1395L28.4535 47.6553L24.3207 46.0547L19.9941 51.3953L24.2124 54.3913C24.5538 54.6338 25.0312 54.5142 25.2182 54.1395Z" fill="#D8DCE5"/>
<path d="M14.7754 54.1395L11.54 47.6553L15.6729 46.0547L19.9994 51.3953L15.7811 54.3913C15.4397 54.6338 14.9624 54.5142 14.7754 54.1395Z" fill="#D8DCE5"/>
<path d="M24.3946 72.1751L21.6177 55.7422H19.9999H19.9947H18.3767L15.5999 72.1751C15.5706 72.3868 15.6328 72.6018 15.7652 72.7478L19.5989 76.9721C19.8125 77.2074 20.1819 77.2074 20.3955 76.9721L24.2293 72.7478C24.3616 72.6017 24.4238 72.3868 24.3946 72.1751Z" fill="#44A4EC"/>
<path d="M18.99 72.7092C18.8577 72.5633 18.7955 72.3482 18.8247 72.1365L21.6016 55.7031H19.9999H19.9947H18.3768L15.5999 72.1365C15.5706 72.3482 15.6328 72.5633 15.7652 72.7092L19.5989 76.9335C19.8125 77.1688 20.1819 77.1688 20.3955 76.9335L21.6096 75.5956L18.99 72.7092Z" fill="#4696D2"/>
<path d="M20.0002 51.3708V51.3672L19.9975 51.3691L19.9949 51.3672V51.3708L16.9268 53.5498L18.3771 55.7327H19.9949H20.0002H21.618L23.0682 53.5498L20.0002 51.3708Z" fill="#44A4EC"/>
<path d="M21.6064 52.5123L19.9992 51.3709V51.3672L19.9966 51.3691L19.9939 51.3672V51.3709L16.9258 53.55L18.3761 55.7327H19.9939H19.9991H21.5955L20.3505 53.8589C20.2361 53.6867 20.2791 53.4548 20.4477 53.335L21.6064 52.5123Z" fill="#4696D2"/>
<path d="M8.23696 77.3732V59.2151C8.23696 58.5484 7.69649 58.0078 7.02961 58.0078C6.36273 58.0078 5.82227 58.5483 5.82227 59.2151V77.373C6.55914 77.3732 7.3693 77.3732 8.23696 77.3732Z" fill="#D8DCE5"/>
<path d="M33.9821 77.3732V59.2151C33.9821 58.5484 33.4416 58.0078 32.7747 58.0078C32.108 58.0078 31.5674 58.5483 31.5674 59.2151V77.373C32.4329 77.3732 33.2421 77.3732 33.9821 77.3732Z" fill="#D8DCE5"/>
</g>
<defs>
<clipPath id="clip0">
<rect width="80" height="80" fill="white"/>
</clipPath>
</defs>
</svg>
