<svg width="80" height="80" viewBox="0 0 80 80" fill="none" xmlns="http://www.w3.org/2000/svg">
<g clip-path="url(#clip0)">
<path d="M63.3146 31.7612L62.0693 0H51.0348L50.1492 22.5768L45.5176 40L52.4141 41.3793L63.3146 31.7612Z" fill="#7E8A96"/>
<path d="M39.6198 31.3516L38.6211 6.89648H26.2073L25.5715 22.4676L22.0693 42.7585L27.5866 41.3792L39.6198 31.3516Z" fill="#7E8A96"/>
<path d="M75.8618 20.6895L52.4136 41.3791V20.6895L27.586 41.3791V20.6895L4.1377 41.3791V74.4825H75.8618V20.6895Z" fill="#B5BBC1"/>
<path d="M2.75862 74.4829H77.2414C78.7648 74.4829 80 75.7181 80 77.2415C80 78.765 78.7648 80.0002 77.2414 80.0002H2.75862C1.23518 80.0002 0 78.765 0 77.2415C0 75.7181 1.23518 74.4829 2.75862 74.4829Z" fill="#A3A3A3"/>
<path d="M27.5859 53.793H52.4135V74.4826H27.5859V53.793Z" fill="#949494"/>
<path d="M52.4139 49.6551H27.5863C26.8246 49.6551 26.207 49.0375 26.207 48.2758C26.207 47.5141 26.8246 46.8965 27.5863 46.8965H52.4139C53.1756 46.8965 53.7932 47.5141 53.7932 48.2758C53.7932 49.0375 53.1756 49.6551 52.4139 49.6551Z" fill="#F9F9F9"/>
<path d="M9.65527 55.1724H22.0691V68.9655H9.65527V55.1724Z" fill="#949494"/>
<path d="M57.9307 55.1724H70.3445V68.9655H57.9307V55.1724Z" fill="#949494"/>
<path d="M37.2416 67.586C36.4799 67.586 35.8623 66.9684 35.8623 66.2067V62.0688C35.8623 61.307 36.4799 60.6895 37.2416 60.6895C38.0033 60.6895 38.6209 61.307 38.6209 62.0688V66.2067C38.6209 66.9684 38.0033 67.586 37.2416 67.586Z" fill="#F9F9F9"/>
<path d="M42.7582 67.586C41.9965 67.586 41.3789 66.9684 41.3789 66.2067V62.0688C41.3789 61.307 41.9965 60.6895 42.7582 60.6895C43.5199 60.6895 44.1375 61.307 44.1375 62.0688V66.2067C44.1375 66.9684 43.5199 67.586 42.7582 67.586Z" fill="#F9F9F9"/>
<path d="M62.3933 8.27586L62.0694 0H51.0349L50.7109 8.27586H62.3933Z" fill="#5A6470"/>
<path d="M50.4941 13.7931H62.6103L62.3934 8.27588H50.711L50.4941 13.7931Z" fill="#AABECE"/>
<path d="M38.8461 12.4137L38.6212 6.89648H26.2074L25.9824 12.4137H38.8461Z" fill="#5A6470"/>
</g>
<defs>
<clipPath id="clip0">
<rect width="80" height="80" fill="white"/>
</clipPath>
</defs>
</svg>
