<svg width="80" height="80" viewBox="0 0 80 80" fill="none" xmlns="http://www.w3.org/2000/svg">
<g clip-path="url(#clip0)">
<path d="M53.7918 39.8658H33.4821C32.4237 39.8658 31.4962 39.1578 31.2171 38.1369C30.938 37.1159 31.3765 36.0345 32.2876 35.4959C41.1365 30.2672 45.7329 24.1678 46.3391 16.8494C46.5505 14.3095 48.8127 12.2808 51.3807 12.3144C54.001 12.3563 56.4558 13.4066 58.2944 15.2722C60.1344 17.1395 61.1485 19.6123 61.1494 22.2348C61.1494 22.2352 61.1494 22.2355 61.1494 22.2358V23.0247C61.1494 29.4309 59.2519 33.5156 55.7508 38.8122C55.3157 39.4702 54.5802 39.8658 53.7918 39.8658Z" fill="#FFC380"/>
<path d="M78.6818 42.5269C78.6818 38.4701 75.3813 35.1694 71.3243 35.1694H33.4819C33.0614 35.1694 32.6486 35.2822 32.2869 35.4963C29.6305 37.0669 26.9483 38.3599 24.7932 39.3991C24.0414 39.7615 23.3314 40.1038 22.6857 40.4266C21.8902 40.8244 21.3877 41.6374 21.3877 42.5269V72.583C21.3877 73.4726 21.8902 74.2855 22.6857 74.6833C32.1736 79.4266 40.0605 80.0002 49.2575 80.0002C50.6818 80.0002 52.1383 79.9865 53.6361 79.9724C55.2927 79.9568 57.0054 79.9405 58.801 79.9405H66.2243C70.2811 79.9405 73.5818 76.6401 73.5818 72.583C73.5818 71.219 73.2088 69.9405 72.5591 68.8441C74.673 67.5501 76.0864 65.2193 76.0864 62.5643C76.0864 61.2002 75.7135 59.9218 75.0638 58.8254C77.1777 57.5313 78.5911 55.2005 78.5911 52.5455C78.5911 50.6374 77.861 48.8966 76.6655 47.588C77.9674 46.216 78.6818 44.4265 78.6818 42.5269Z" fill="#FFD3A2"/>
<path d="M73.797 22.0493H68.7876C67.4909 22.0493 66.4395 20.9979 66.4395 19.7012C66.4395 18.4044 67.4909 17.353 68.7876 17.353H73.797C75.0937 17.353 76.1451 18.4044 76.1451 19.7012C76.1451 20.9979 75.0938 22.0493 73.797 22.0493Z" fill="#29CCB1"/>
<path d="M38.7315 22.0493H33.7222C32.4254 22.0493 31.374 20.9979 31.374 19.7012C31.374 18.4044 32.4254 17.353 33.7222 17.353H38.7315C40.0283 17.353 41.0797 18.4044 41.0797 19.7012C41.0797 20.9979 40.0286 22.0493 38.7315 22.0493Z" fill="#29CCB1"/>
<path d="M46.2479 9.03612C45.4362 9.03612 44.6471 8.61503 44.2123 7.86175L41.7076 3.52347C41.0591 2.4005 41.444 0.964247 42.5669 0.315965C43.6899 -0.332472 45.1262 0.0523716 45.7744 1.17534L48.2791 5.51362C48.9276 6.63659 48.5427 8.07284 47.4198 8.72112C47.0501 8.93472 46.6462 9.03612 46.2479 9.03612Z" fill="#29CCB1"/>
<path d="M61.271 9.03528C60.8726 9.03528 60.4689 8.93388 60.0992 8.72028C58.9762 8.07185 58.5914 6.63575 59.2398 5.51278L61.7445 1.1745C62.3928 0.0515339 63.829 -0.333622 64.952 0.315128C66.0749 0.963565 66.4598 2.39966 65.8114 3.52263L63.3067 7.86091C62.8721 8.61419 62.0826 9.03528 61.271 9.03528Z" fill="#29CCB1"/>
<path d="M16.0332 67.603V79.9699H11.3369V67.603C11.3369 66.3069 12.3889 65.2549 13.685 65.2549C14.9811 65.2549 16.0332 66.3069 16.0332 67.603Z" fill="#73C3FF"/>
<path d="M73.797 22.0493H68.7876C67.4909 22.0493 66.4395 20.9979 66.4395 19.7012C66.4395 18.4044 67.4909 17.353 68.7876 17.353H73.797C75.0937 17.353 76.1451 18.4044 76.1451 19.7012C76.1451 20.9979 75.0938 22.0493 73.797 22.0493Z" fill="#FED545"/>
<path d="M38.7315 22.0493H33.7222C32.4254 22.0493 31.374 20.9979 31.374 19.7012C31.374 18.4044 32.4254 17.353 33.7222 17.353H38.7315C40.0283 17.353 41.0797 18.4044 41.0797 19.7012C41.0797 20.9979 40.0286 22.0493 38.7315 22.0493Z" fill="#FED545"/>
<path d="M46.2479 9.03612C45.4362 9.03612 44.6471 8.61503 44.2123 7.86175L41.7076 3.52347C41.0591 2.4005 41.444 0.964247 42.5669 0.315965C43.6899 -0.332472 45.1262 0.0523716 45.7744 1.17534L48.2791 5.51362C48.9276 6.63659 48.5427 8.07284 47.4198 8.72112C47.0501 8.93472 46.6462 9.03612 46.2479 9.03612Z" fill="#FED545"/>
<path d="M61.271 9.03528C60.8726 9.03528 60.4689 8.93388 60.0992 8.72028C58.9762 8.07185 58.5914 6.63575 59.2398 5.51278L61.7445 1.1745C62.3928 0.0515339 63.829 -0.333622 64.952 0.315128C66.0749 0.963565 66.4598 2.39966 65.8114 3.52263L63.3067 7.86091C62.8721 8.61419 62.0826 9.03528 61.271 9.03528Z" fill="#FED545"/>
<path d="M16.0332 67.603V79.9699H11.3369V67.603C11.3369 66.3069 12.3889 65.2549 13.685 65.2549C14.9811 65.2549 16.0332 66.3069 16.0332 67.603Z" fill="#73C3FF"/>
<path d="M23.7038 35.1694H3.66648C2.37039 35.1694 1.31836 36.2215 1.31836 37.5176V77.5922C1.31836 78.8899 2.37039 79.9404 3.66648 79.9701H18.6945C21.5732 79.9404 24.0701 78.2794 25.2771 75.8655C25.7734 74.8777 26.052 73.7616 26.052 72.5829V37.5176C26.052 36.2213 24.9999 35.1694 23.7038 35.1694Z" fill="#44A4EC"/>
<path d="M16.0332 67.4468V79.9702H11.3369V67.4468C11.3369 66.1507 12.3889 65.0986 13.685 65.0986C14.9811 65.0986 16.0332 66.1507 16.0332 67.4468Z" fill="#73C3FF"/>
</g>
<defs>
<clipPath id="clip0">
<rect width="80" height="80" fill="white"/>
</clipPath>
</defs>
</svg>
