<svg width="80" height="80" viewBox="0 0 80 80" fill="none" xmlns="http://www.w3.org/2000/svg">
<path d="M42.2519 24.8706V38.2111C42.2519 39.5062 41.2021 40.5548 39.9082 40.5548C38.6143 40.5548 37.5645 39.5062 37.5645 38.2111V24.8706C37.5645 23.5767 38.6143 22.5269 39.9082 22.5269C41.2021 22.5269 42.2519 23.5767 42.2519 24.8706Z" fill="#949494"/>
<path d="M42.2519 24.8706V38.2111C42.2519 39.5062 41.2021 40.5548 39.9082 40.5548V22.5269C41.2021 22.5269 42.2519 23.5767 42.2519 24.8706Z" fill="#6A6A6A"/>
<path d="M54.679 16.6047L49.6289 20.2643L51.557 26.1798C52.1411 27.9706 51.5332 29.8456 50.0098 30.9565C49.2554 31.5046 48.371 31.7798 47.4884 31.7798C46.6071 31.7798 45.7269 31.5076 44.9756 30.9626L39.9176 27.2986L39.9085 27.3047L34.8584 30.9626C33.3509 32.0533 31.3288 32.0514 29.8242 30.9565C28.3008 29.8456 27.6929 27.9706 28.277 26.1798L30.2051 20.2643L25.1538 16.6047C23.6493 15.5158 23.0243 13.5956 23.5962 11.8299C24.1693 10.0611 25.8051 8.87211 27.6679 8.87211H33.9179L35.8478 2.94987C36.3806 1.31413 37.7741 0.19047 39.4837 0.0220128C39.6259 0.0061437 39.7681 4.01884e-05 39.9085 4.01884e-05C41.7603 -0.00789437 43.4009 1.15971 43.985 2.94987L45.9162 8.87211H52.1662C54.0289 8.87211 55.6647 10.0611 56.2384 11.8311C56.8115 13.5968 56.1835 15.5158 54.679 16.6047Z" fill="#FFDE6B"/>
<path d="M54.6787 16.6047L49.6287 20.2643L51.5568 26.1798C52.1409 27.9706 51.533 29.8456 50.0095 30.9565C49.2551 31.5046 48.3707 31.7798 47.4882 31.7798C46.6068 31.7798 45.7267 31.5076 44.9753 30.9626L39.9174 27.2986L39.9082 27.3047V4.01884e-05C41.76 -0.00789437 43.4006 1.15971 43.9847 2.94987L45.9159 8.87211H52.1659C54.0287 8.87211 55.6644 10.0611 56.2382 11.8311C56.8113 13.5968 56.1832 15.5158 54.6787 16.6047Z" fill="#FED545"/>
<path d="M27.4298 56.3682H9.32617C4.18396 56.3682 0 60.5424 0 65.673V77.6554C0 78.95 1.04919 79.9991 2.34375 79.9991H27.4298C28.7238 79.9991 29.7736 78.95 29.7736 77.6554V58.7119C29.7736 57.4174 28.7238 56.3682 27.4298 56.3682Z" fill="#E1E1E1"/>
<path d="M70.6733 48.5576H52.5703C51.2758 48.5576 50.2266 49.6068 50.2266 50.9014V77.6561C50.2266 78.9501 51.2758 79.9999 52.5703 79.9999H77.6558C78.9503 79.9999 79.9995 78.9501 79.9995 77.6561V57.8624C79.9995 52.7318 75.8155 48.5576 70.6733 48.5576Z" fill="#6A6A6A"/>
<path d="M54.8607 44.7466V79.9999H25.0859V44.7466C25.0859 39.8516 29.0776 35.8672 33.9855 35.8672H45.9606C50.8672 35.8672 54.8607 39.8516 54.8607 44.7466Z" fill="#56ADEF"/>
<path d="M54.86 44.7466V79.9999H39.9082V35.8672H45.9598C50.8665 35.8672 54.86 39.8516 54.86 44.7466Z" fill="#44A4EC"/>
</svg>
