<svg width="28" height="22" viewBox="0 0 28 22" fill="none" xmlns="http://www.w3.org/2000/svg">
<path d="M27.4942 3.232L25.0375 0.775265C24.7006 0.438151 24.2909 0.269531 23.8094 0.269531C23.3274 0.269531 22.9177 0.438151 22.5808 0.775265L10.7303 12.6437L5.41932 7.31456C5.08208 6.97732 4.67265 6.80889 4.19108 6.80889C3.7092 6.80889 3.29977 6.97732 2.96253 7.31456L0.505797 9.77136C0.168557 10.1085 0 10.5181 0 10.9999C0 11.4814 0.168557 11.8913 0.505797 12.2284L7.04503 18.7675L9.50195 21.2242C9.839 21.5616 10.2486 21.73 10.7303 21.73C11.2119 21.73 11.6214 21.5612 11.9587 21.2242L14.4155 18.7675L27.4942 5.68891C27.8311 5.35167 28 4.94218 28 4.46036C28.0003 3.9788 27.8311 3.56924 27.4942 3.232Z" fill="#FFE461"/>
</svg>
